ISO-10303-21;
HEADER;
/* Generated by software containing ST-Developer
 * from STEP Tools, Inc. (www.steptools.com) 
 */
/* OPTION: using custom renumber hook */

FILE_DESCRIPTION(
/* description */ ('STEP AP242 Edition 2',
'CAx-IF Rec.Pracs.---Representation and Presentation of Product Manufa
cturing Information (PMI)---4.0---2014-10-13',
'CAx-IF Rec.Pracs.---3D Tessellated Geometry---0.4---2014-09-14','2;1',
'CAx-IF Rec.Pracs.---User Defined Attributes---1.5---2016-08-15'),
/* implementation_level */ '2;1');

FILE_NAME(
/* name */ 'Part Studio 1 - kp1 - Oberboden',
/* time_stamp */ '2026-10-03T15:30:02Z',
/* author */ (''),
/* organization */ (''),
/* preprocessor_version */ 'ST-DEVELOPER v20',
/* originating_system */ 'ONSHAPE BY PTC INC, 1.221',
/* authorisation */ '  ');

FILE_SCHEMA (('AP242_MANAGED_MODEL_BASED_3D_ENGINEERING_MIM_LF { 1 0 10303 442 3 1 4 }'));
ENDSEC;

DATA;
#10=SHAPE_REPRESENTATION_RELATIONSHIP('','',#467,#11);
#11=ADVANCED_BREP_SHAPE_REPRESENTATION('',(#465),#817);
#12=CYLINDRICAL_SURFACE('',#491,0.004);
#13=CYLINDRICAL_SURFACE('',#494,0.004);
#14=CYLINDRICAL_SURFACE('',#497,0.004);
#15=CYLINDRICAL_SURFACE('',#500,0.004);
#16=CYLINDRICAL_SURFACE('',#503,0.004);
#17=CYLINDRICAL_SURFACE('',#506,0.004);
#18=CYLINDRICAL_SURFACE('',#509,0.004);
#19=CYLINDRICAL_SURFACE('',#512,0.004);
#20=CYLINDRICAL_SURFACE('',#515,0.004);
#21=CYLINDRICAL_SURFACE('',#518,0.004);
#22=CYLINDRICAL_SURFACE('',#521,0.004);
#23=CYLINDRICAL_SURFACE('',#524,0.004);
#24=CYLINDRICAL_SURFACE('',#527,0.004);
#25=CYLINDRICAL_SURFACE('',#530,0.004);
#26=CYLINDRICAL_SURFACE('',#533,0.004);
#27=CYLINDRICAL_SURFACE('',#536,0.004);
#28=CIRCLE('',#474,0.004);
#29=CIRCLE('',#475,0.004);
#30=CIRCLE('',#476,0.004);
#31=CIRCLE('',#477,0.004);
#32=CIRCLE('',#478,0.004);
#33=CIRCLE('',#479,0.004);
#34=CIRCLE('',#480,0.004);
#35=CIRCLE('',#481,0.004);
#36=CIRCLE('',#483,0.004);
#37=CIRCLE('',#484,0.004);
#38=CIRCLE('',#485,0.004);
#39=CIRCLE('',#486,0.004);
#40=CIRCLE('',#487,0.004);
#41=CIRCLE('',#488,0.004);
#42=CIRCLE('',#489,0.004);
#43=CIRCLE('',#490,0.004);
#44=CIRCLE('',#492,0.004);
#45=CIRCLE('',#495,0.004);
#46=CIRCLE('',#498,0.004);
#47=CIRCLE('',#501,0.004);
#48=CIRCLE('',#504,0.004);
#49=CIRCLE('',#507,0.004);
#50=CIRCLE('',#510,0.004);
#51=CIRCLE('',#513,0.004);
#52=CIRCLE('',#516,0.004);
#53=CIRCLE('',#519,0.004);
#54=CIRCLE('',#522,0.004);
#55=CIRCLE('',#525,0.004);
#56=CIRCLE('',#528,0.004);
#57=CIRCLE('',#531,0.004);
#58=CIRCLE('',#534,0.004);
#59=CIRCLE('',#537,0.004);
#60=ORIENTED_EDGE('',*,*,#148,.T.);
#61=ORIENTED_EDGE('',*,*,#149,.T.);
#62=ORIENTED_EDGE('',*,*,#150,.F.);
#63=ORIENTED_EDGE('',*,*,#151,.F.);
#64=ORIENTED_EDGE('',*,*,#152,.F.);
#65=ORIENTED_EDGE('',*,*,#153,.F.);
#66=ORIENTED_EDGE('',*,*,#154,.T.);
#67=ORIENTED_EDGE('',*,*,#155,.T.);
#68=ORIENTED_EDGE('',*,*,#153,.T.);
#69=ORIENTED_EDGE('',*,*,#156,.T.);
#70=ORIENTED_EDGE('',*,*,#148,.F.);
#71=ORIENTED_EDGE('',*,*,#157,.F.);
#72=ORIENTED_EDGE('',*,*,#150,.T.);
#73=ORIENTED_EDGE('',*,*,#158,.T.);
#74=ORIENTED_EDGE('',*,*,#155,.F.);
#75=ORIENTED_EDGE('',*,*,#159,.F.);
#76=ORIENTED_EDGE('',*,*,#160,.F.);
#77=ORIENTED_EDGE('',*,*,#161,.F.);
#78=ORIENTED_EDGE('',*,*,#162,.F.);
#79=ORIENTED_EDGE('',*,*,#163,.F.);
#80=ORIENTED_EDGE('',*,*,#164,.F.);
#81=ORIENTED_EDGE('',*,*,#165,.F.);
#82=ORIENTED_EDGE('',*,*,#166,.F.);
#83=ORIENTED_EDGE('',*,*,#167,.F.);
#84=ORIENTED_EDGE('',*,*,#159,.T.);
#85=ORIENTED_EDGE('',*,*,#154,.F.);
#86=ORIENTED_EDGE('',*,*,#157,.T.);
#87=ORIENTED_EDGE('',*,*,#151,.T.);
#88=ORIENTED_EDGE('',*,*,#168,.F.);
#89=ORIENTED_EDGE('',*,*,#169,.F.);
#90=ORIENTED_EDGE('',*,*,#170,.F.);
#91=ORIENTED_EDGE('',*,*,#171,.F.);
#92=ORIENTED_EDGE('',*,*,#172,.F.);
#93=ORIENTED_EDGE('',*,*,#173,.F.);
#94=ORIENTED_EDGE('',*,*,#174,.F.);
#95=ORIENTED_EDGE('',*,*,#175,.F.);
#96=ORIENTED_EDGE('',*,*,#149,.F.);
#97=ORIENTED_EDGE('',*,*,#156,.F.);
#98=ORIENTED_EDGE('',*,*,#152,.T.);
#99=ORIENTED_EDGE('',*,*,#158,.F.);
#100=ORIENTED_EDGE('',*,*,#176,.F.);
#101=ORIENTED_EDGE('',*,*,#167,.T.);
#102=ORIENTED_EDGE('',*,*,#176,.T.);
#103=ORIENTED_EDGE('',*,*,#177,.F.);
#104=ORIENTED_EDGE('',*,*,#166,.T.);
#105=ORIENTED_EDGE('',*,*,#177,.T.);
#106=ORIENTED_EDGE('',*,*,#178,.F.);
#107=ORIENTED_EDGE('',*,*,#165,.T.);
#108=ORIENTED_EDGE('',*,*,#178,.T.);
#109=ORIENTED_EDGE('',*,*,#179,.F.);
#110=ORIENTED_EDGE('',*,*,#164,.T.);
#111=ORIENTED_EDGE('',*,*,#179,.T.);
#112=ORIENTED_EDGE('',*,*,#180,.F.);
#113=ORIENTED_EDGE('',*,*,#163,.T.);
#114=ORIENTED_EDGE('',*,*,#180,.T.);
#115=ORIENTED_EDGE('',*,*,#181,.F.);
#116=ORIENTED_EDGE('',*,*,#162,.T.);
#117=ORIENTED_EDGE('',*,*,#181,.T.);
#118=ORIENTED_EDGE('',*,*,#182,.F.);
#119=ORIENTED_EDGE('',*,*,#161,.T.);
#120=ORIENTED_EDGE('',*,*,#182,.T.);
#121=ORIENTED_EDGE('',*,*,#183,.F.);
#122=ORIENTED_EDGE('',*,*,#160,.T.);
#123=ORIENTED_EDGE('',*,*,#183,.T.);
#124=ORIENTED_EDGE('',*,*,#184,.F.);
#125=ORIENTED_EDGE('',*,*,#175,.T.);
#126=ORIENTED_EDGE('',*,*,#184,.T.);
#127=ORIENTED_EDGE('',*,*,#185,.F.);
#128=ORIENTED_EDGE('',*,*,#174,.T.);
#129=ORIENTED_EDGE('',*,*,#185,.T.);
#130=ORIENTED_EDGE('',*,*,#186,.F.);
#131=ORIENTED_EDGE('',*,*,#173,.T.);
#132=ORIENTED_EDGE('',*,*,#186,.T.);
#133=ORIENTED_EDGE('',*,*,#187,.F.);
#134=ORIENTED_EDGE('',*,*,#172,.T.);
#135=ORIENTED_EDGE('',*,*,#187,.T.);
#136=ORIENTED_EDGE('',*,*,#188,.F.);
#137=ORIENTED_EDGE('',*,*,#171,.T.);
#138=ORIENTED_EDGE('',*,*,#188,.T.);
#139=ORIENTED_EDGE('',*,*,#189,.F.);
#140=ORIENTED_EDGE('',*,*,#170,.T.);
#141=ORIENTED_EDGE('',*,*,#189,.T.);
#142=ORIENTED_EDGE('',*,*,#190,.F.);
#143=ORIENTED_EDGE('',*,*,#169,.T.);
#144=ORIENTED_EDGE('',*,*,#190,.T.);
#145=ORIENTED_EDGE('',*,*,#191,.F.);
#146=ORIENTED_EDGE('',*,*,#168,.T.);
#147=ORIENTED_EDGE('',*,*,#191,.T.);
#148=EDGE_CURVE('',#192,#193,#232,.T.);
#149=EDGE_CURVE('',#193,#194,#233,.F.);
#150=EDGE_CURVE('',#195,#194,#234,.T.);
#151=EDGE_CURVE('',#192,#195,#235,.F.);
#152=EDGE_CURVE('',#196,#197,#236,.F.);
#153=EDGE_CURVE('',#198,#196,#237,.T.);
#154=EDGE_CURVE('',#198,#199,#238,.F.);
#155=EDGE_CURVE('',#199,#197,#239,.T.);
#156=EDGE_CURVE('',#196,#193,#240,.F.);
#157=EDGE_CURVE('',#198,#192,#241,.T.);
#158=EDGE_CURVE('',#194,#197,#242,.T.);
#159=EDGE_CURVE('',#195,#199,#243,.T.);
#160=EDGE_CURVE('',#200,#200,#28,.T.);
#161=EDGE_CURVE('',#201,#201,#29,.T.);
#162=EDGE_CURVE('',#202,#202,#30,.T.);
#163=EDGE_CURVE('',#203,#203,#31,.T.);
#164=EDGE_CURVE('',#204,#204,#32,.T.);
#165=EDGE_CURVE('',#205,#205,#33,.T.);
#166=EDGE_CURVE('',#206,#206,#34,.T.);
#167=EDGE_CURVE('',#207,#207,#35,.T.);
#168=EDGE_CURVE('',#208,#208,#36,.T.);
#169=EDGE_CURVE('',#209,#209,#37,.T.);
#170=EDGE_CURVE('',#210,#210,#38,.T.);
#171=EDGE_CURVE('',#211,#211,#39,.T.);
#172=EDGE_CURVE('',#212,#212,#40,.T.);
#173=EDGE_CURVE('',#213,#213,#41,.T.);
#174=EDGE_CURVE('',#214,#214,#42,.T.);
#175=EDGE_CURVE('',#215,#215,#43,.T.);
#176=EDGE_CURVE('',#216,#216,#44,.T.);
#177=EDGE_CURVE('',#217,#217,#45,.T.);
#178=EDGE_CURVE('',#218,#218,#46,.T.);
#179=EDGE_CURVE('',#219,#219,#47,.T.);
#180=EDGE_CURVE('',#220,#220,#48,.T.);
#181=EDGE_CURVE('',#221,#221,#49,.T.);
#182=EDGE_CURVE('',#222,#222,#50,.T.);
#183=EDGE_CURVE('',#223,#223,#51,.T.);
#184=EDGE_CURVE('',#224,#224,#52,.T.);
#185=EDGE_CURVE('',#225,#225,#53,.T.);
#186=EDGE_CURVE('',#226,#226,#54,.T.);
#187=EDGE_CURVE('',#227,#227,#55,.T.);
#188=EDGE_CURVE('',#228,#228,#56,.T.);
#189=EDGE_CURVE('',#229,#229,#57,.T.);
#190=EDGE_CURVE('',#230,#230,#58,.T.);
#191=EDGE_CURVE('',#231,#231,#59,.T.);
#192=VERTEX_POINT('',#696);
#193=VERTEX_POINT('',#697);
#194=VERTEX_POINT('',#699);
#195=VERTEX_POINT('',#701);
#196=VERTEX_POINT('',#705);
#197=VERTEX_POINT('',#706);
#198=VERTEX_POINT('',#708);
#199=VERTEX_POINT('',#710);
#200=VERTEX_POINT('',#720);
#201=VERTEX_POINT('',#722);
#202=VERTEX_POINT('',#724);
#203=VERTEX_POINT('',#726);
#204=VERTEX_POINT('',#728);
#205=VERTEX_POINT('',#730);
#206=VERTEX_POINT('',#732);
#207=VERTEX_POINT('',#734);
#208=VERTEX_POINT('',#737);
#209=VERTEX_POINT('',#739);
#210=VERTEX_POINT('',#741);
#211=VERTEX_POINT('',#743);
#212=VERTEX_POINT('',#745);
#213=VERTEX_POINT('',#747);
#214=VERTEX_POINT('',#749);
#215=VERTEX_POINT('',#751);
#216=VERTEX_POINT('',#754);
#217=VERTEX_POINT('',#758);
#218=VERTEX_POINT('',#762);
#219=VERTEX_POINT('',#766);
#220=VERTEX_POINT('',#770);
#221=VERTEX_POINT('',#774);
#222=VERTEX_POINT('',#778);
#223=VERTEX_POINT('',#782);
#224=VERTEX_POINT('',#786);
#225=VERTEX_POINT('',#790);
#226=VERTEX_POINT('',#794);
#227=VERTEX_POINT('',#798);
#228=VERTEX_POINT('',#802);
#229=VERTEX_POINT('',#806);
#230=VERTEX_POINT('',#810);
#231=VERTEX_POINT('',#814);
#232=LINE('',#695,#244);
#233=LINE('',#698,#245);
#234=LINE('',#700,#246);
#235=LINE('',#702,#247);
#236=LINE('',#704,#248);
#237=LINE('',#707,#249);
#238=LINE('',#709,#250);
#239=LINE('',#711,#251);
#240=LINE('',#713,#252);
#241=LINE('',#714,#253);
#242=LINE('',#716,#254);
#243=LINE('',#717,#255);
#244=VECTOR('',#543,1.);
#245=VECTOR('',#544,1.);
#246=VECTOR('',#545,1.);
#247=VECTOR('',#546,1.);
#248=VECTOR('',#549,1.);
#249=VECTOR('',#550,1.);
#250=VECTOR('',#551,1.);
#251=VECTOR('',#552,1.);
#252=VECTOR('',#555,1.);
#253=VECTOR('',#556,1.);
#254=VECTOR('',#559,1.);
#255=VECTOR('',#560,1.);
#256=EDGE_LOOP('',(#60,#61,#62,#63));
#257=EDGE_LOOP('',(#64,#65,#66,#67));
#258=EDGE_LOOP('',(#68,#69,#70,#71));
#259=EDGE_LOOP('',(#72,#73,#74,#75));
#260=EDGE_LOOP('',(#76));
#261=EDGE_LOOP('',(#77));
#262=EDGE_LOOP('',(#78));
#263=EDGE_LOOP('',(#79));
#264=EDGE_LOOP('',(#80));
#265=EDGE_LOOP('',(#81));
#266=EDGE_LOOP('',(#82));
#267=EDGE_LOOP('',(#83));
#268=EDGE_LOOP('',(#84,#85,#86,#87));
#269=EDGE_LOOP('',(#88));
#270=EDGE_LOOP('',(#89));
#271=EDGE_LOOP('',(#90));
#272=EDGE_LOOP('',(#91));
#273=EDGE_LOOP('',(#92));
#274=EDGE_LOOP('',(#93));
#275=EDGE_LOOP('',(#94));
#276=EDGE_LOOP('',(#95));
#277=EDGE_LOOP('',(#96,#97,#98,#99));
#278=EDGE_LOOP('',(#100));
#279=EDGE_LOOP('',(#101));
#280=EDGE_LOOP('',(#102));
#281=EDGE_LOOP('',(#103));
#282=EDGE_LOOP('',(#104));
#283=EDGE_LOOP('',(#105));
#284=EDGE_LOOP('',(#106));
#285=EDGE_LOOP('',(#107));
#286=EDGE_LOOP('',(#108));
#287=EDGE_LOOP('',(#109));
#288=EDGE_LOOP('',(#110));
#289=EDGE_LOOP('',(#111));
#290=EDGE_LOOP('',(#112));
#291=EDGE_LOOP('',(#113));
#292=EDGE_LOOP('',(#114));
#293=EDGE_LOOP('',(#115));
#294=EDGE_LOOP('',(#116));
#295=EDGE_LOOP('',(#117));
#296=EDGE_LOOP('',(#118));
#297=EDGE_LOOP('',(#119));
#298=EDGE_LOOP('',(#120));
#299=EDGE_LOOP('',(#121));
#300=EDGE_LOOP('',(#122));
#301=EDGE_LOOP('',(#123));
#302=EDGE_LOOP('',(#124));
#303=EDGE_LOOP('',(#125));
#304=EDGE_LOOP('',(#126));
#305=EDGE_LOOP('',(#127));
#306=EDGE_LOOP('',(#128));
#307=EDGE_LOOP('',(#129));
#308=EDGE_LOOP('',(#130));
#309=EDGE_LOOP('',(#131));
#310=EDGE_LOOP('',(#132));
#311=EDGE_LOOP('',(#133));
#312=EDGE_LOOP('',(#134));
#313=EDGE_LOOP('',(#135));
#314=EDGE_LOOP('',(#136));
#315=EDGE_LOOP('',(#137));
#316=EDGE_LOOP('',(#138));
#317=EDGE_LOOP('',(#139));
#318=EDGE_LOOP('',(#140));
#319=EDGE_LOOP('',(#141));
#320=EDGE_LOOP('',(#142));
#321=EDGE_LOOP('',(#143));
#322=EDGE_LOOP('',(#144));
#323=EDGE_LOOP('',(#145));
#324=EDGE_LOOP('',(#146));
#325=EDGE_LOOP('',(#147));
#326=FACE_BOUND('',#256,.T.);
#327=FACE_BOUND('',#257,.T.);
#328=FACE_BOUND('',#258,.T.);
#329=FACE_BOUND('',#259,.T.);
#330=FACE_BOUND('',#260,.T.);
#331=FACE_BOUND('',#261,.T.);
#332=FACE_BOUND('',#262,.T.);
#333=FACE_BOUND('',#263,.T.);
#334=FACE_BOUND('',#264,.T.);
#335=FACE_BOUND('',#265,.T.);
#336=FACE_BOUND('',#266,.T.);
#337=FACE_BOUND('',#267,.T.);
#338=FACE_BOUND('',#268,.T.);
#339=FACE_BOUND('',#269,.T.);
#340=FACE_BOUND('',#270,.T.);
#341=FACE_BOUND('',#271,.T.);
#342=FACE_BOUND('',#272,.T.);
#343=FACE_BOUND('',#273,.T.);
#344=FACE_BOUND('',#274,.T.);
#345=FACE_BOUND('',#275,.T.);
#346=FACE_BOUND('',#276,.T.);
#347=FACE_BOUND('',#277,.T.);
#348=FACE_BOUND('',#278,.T.);
#349=FACE_BOUND('',#279,.T.);
#350=FACE_BOUND('',#280,.T.);
#351=FACE_BOUND('',#281,.T.);
#352=FACE_BOUND('',#282,.T.);
#353=FACE_BOUND('',#283,.T.);
#354=FACE_BOUND('',#284,.T.);
#355=FACE_BOUND('',#285,.T.);
#356=FACE_BOUND('',#286,.T.);
#357=FACE_BOUND('',#287,.T.);
#358=FACE_BOUND('',#288,.T.);
#359=FACE_BOUND('',#289,.T.);
#360=FACE_BOUND('',#290,.T.);
#361=FACE_BOUND('',#291,.T.);
#362=FACE_BOUND('',#292,.T.);
#363=FACE_BOUND('',#293,.T.);
#364=FACE_BOUND('',#294,.T.);
#365=FACE_BOUND('',#295,.T.);
#366=FACE_BOUND('',#296,.T.);
#367=FACE_BOUND('',#297,.T.);
#368=FACE_BOUND('',#298,.T.);
#369=FACE_BOUND('',#299,.T.);
#370=FACE_BOUND('',#300,.T.);
#371=FACE_BOUND('',#301,.T.);
#372=FACE_BOUND('',#302,.T.);
#373=FACE_BOUND('',#303,.T.);
#374=FACE_BOUND('',#304,.T.);
#375=FACE_BOUND('',#305,.T.);
#376=FACE_BOUND('',#306,.T.);
#377=FACE_BOUND('',#307,.T.);
#378=FACE_BOUND('',#308,.T.);
#379=FACE_BOUND('',#309,.T.);
#380=FACE_BOUND('',#310,.T.);
#381=FACE_BOUND('',#311,.T.);
#382=FACE_BOUND('',#312,.T.);
#383=FACE_BOUND('',#313,.T.);
#384=FACE_BOUND('',#314,.T.);
#385=FACE_BOUND('',#315,.T.);
#386=FACE_BOUND('',#316,.T.);
#387=FACE_BOUND('',#317,.T.);
#388=FACE_BOUND('',#318,.T.);
#389=FACE_BOUND('',#319,.T.);
#390=FACE_BOUND('',#320,.T.);
#391=FACE_BOUND('',#321,.T.);
#392=FACE_BOUND('',#322,.T.);
#393=FACE_BOUND('',#323,.T.);
#394=FACE_BOUND('',#324,.T.);
#395=FACE_BOUND('',#325,.T.);
#396=PLANE('',#469);
#397=PLANE('',#470);
#398=PLANE('',#471);
#399=PLANE('',#472);
#400=PLANE('',#473);
#401=PLANE('',#482);
#402=PLANE('',#493);
#403=PLANE('',#496);
#404=PLANE('',#499);
#405=PLANE('',#502);
#406=PLANE('',#505);
#407=PLANE('',#508);
#408=PLANE('',#511);
#409=PLANE('',#514);
#410=PLANE('',#517);
#411=PLANE('',#520);
#412=PLANE('',#523);
#413=PLANE('',#526);
#414=PLANE('',#529);
#415=PLANE('',#532);
#416=PLANE('',#535);
#417=PLANE('',#538);
#418=ADVANCED_FACE('',(#326),#396,.F.);
#419=ADVANCED_FACE('',(#327),#397,.T.);
#420=ADVANCED_FACE('',(#328),#398,.T.);
#421=ADVANCED_FACE('',(#329),#399,.F.);
#422=ADVANCED_FACE('',(#330,#331,#332,#333,#334,#335,#336,#337,#338),#400,
 .T.);
#423=ADVANCED_FACE('',(#339,#340,#341,#342,#343,#344,#345,#346,#347),#401,
 .F.);
#424=ADVANCED_FACE('',(#348,#349),#12,.F.);
#425=ADVANCED_FACE('',(#350),#402,.T.);
#426=ADVANCED_FACE('',(#351,#352),#13,.F.);
#427=ADVANCED_FACE('',(#353),#403,.T.);
#428=ADVANCED_FACE('',(#354,#355),#14,.F.);
#429=ADVANCED_FACE('',(#356),#404,.T.);
#430=ADVANCED_FACE('',(#357,#358),#15,.F.);
#431=ADVANCED_FACE('',(#359),#405,.T.);
#432=ADVANCED_FACE('',(#360,#361),#16,.F.);
#433=ADVANCED_FACE('',(#362),#406,.T.);
#434=ADVANCED_FACE('',(#363,#364),#17,.F.);
#435=ADVANCED_FACE('',(#365),#407,.T.);
#436=ADVANCED_FACE('',(#366,#367),#18,.F.);
#437=ADVANCED_FACE('',(#368),#408,.T.);
#438=ADVANCED_FACE('',(#369,#370),#19,.F.);
#439=ADVANCED_FACE('',(#371),#409,.T.);
#440=ADVANCED_FACE('',(#372,#373),#20,.F.);
#441=ADVANCED_FACE('',(#374),#410,.T.);
#442=ADVANCED_FACE('',(#375,#376),#21,.F.);
#443=ADVANCED_FACE('',(#377),#411,.T.);
#444=ADVANCED_FACE('',(#378,#379),#22,.F.);
#445=ADVANCED_FACE('',(#380),#412,.T.);
#446=ADVANCED_FACE('',(#381,#382),#23,.F.);
#447=ADVANCED_FACE('',(#383),#413,.T.);
#448=ADVANCED_FACE('',(#384,#385),#24,.F.);
#449=ADVANCED_FACE('',(#386),#414,.T.);
#450=ADVANCED_FACE('',(#387,#388),#25,.F.);
#451=ADVANCED_FACE('',(#389),#415,.T.);
#452=ADVANCED_FACE('',(#390,#391),#26,.F.);
#453=ADVANCED_FACE('',(#392),#416,.T.);
#454=ADVANCED_FACE('',(#393,#394),#27,.F.);
#455=ADVANCED_FACE('',(#395),#417,.T.);
#456=CLOSED_SHELL('',(#418,#419,#420,#421,#422,#423,#424,#425,#426,#427,
#428,#429,#430,#431,#432,#433,#434,#435,#436,#437,#438,#439,#440,#441,#442,
#443,#444,#445,#446,#447,#448,#449,#450,#451,#452,#453,#454,#455));
#457=STYLED_ITEM('',(#458),#465);
#458=PRESENTATION_STYLE_ASSIGNMENT((#459));
#459=SURFACE_STYLE_USAGE(.BOTH.,#460);
#460=SURFACE_SIDE_STYLE('',(#461));
#461=SURFACE_STYLE_FILL_AREA(#462);
#462=FILL_AREA_STYLE('',(#463));
#463=FILL_AREA_STYLE_COLOUR('',#464);
#464=COLOUR_RGB('',0.729411764705882,0.647058823529412,0.431372549019608);
#465=MANIFOLD_SOLID_BREP('kp1 - Oberboden',#456);
#466=SHAPE_DEFINITION_REPRESENTATION(#822,#467);
#467=SHAPE_REPRESENTATION('kp1 - Oberboden',(#468),#817);
#468=AXIS2_PLACEMENT_3D('',#693,#539,#540);
#469=AXIS2_PLACEMENT_3D('',#694,#541,#542);
#470=AXIS2_PLACEMENT_3D('',#703,#547,#548);
#471=AXIS2_PLACEMENT_3D('',#712,#553,#554);
#472=AXIS2_PLACEMENT_3D('',#715,#557,#558);
#473=AXIS2_PLACEMENT_3D('',#718,#561,#562);
#474=AXIS2_PLACEMENT_3D('',#719,#563,#564);
#475=AXIS2_PLACEMENT_3D('',#721,#565,#566);
#476=AXIS2_PLACEMENT_3D('',#723,#567,#568);
#477=AXIS2_PLACEMENT_3D('',#725,#569,#570);
#478=AXIS2_PLACEMENT_3D('',#727,#571,#572);
#479=AXIS2_PLACEMENT_3D('',#729,#573,#574);
#480=AXIS2_PLACEMENT_3D('',#731,#575,#576);
#481=AXIS2_PLACEMENT_3D('',#733,#577,#578);
#482=AXIS2_PLACEMENT_3D('',#735,#579,#580);
#483=AXIS2_PLACEMENT_3D('',#736,#581,#582);
#484=AXIS2_PLACEMENT_3D('',#738,#583,#584);
#485=AXIS2_PLACEMENT_3D('',#740,#585,#586);
#486=AXIS2_PLACEMENT_3D('',#742,#587,#588);
#487=AXIS2_PLACEMENT_3D('',#744,#589,#590);
#488=AXIS2_PLACEMENT_3D('',#746,#591,#592);
#489=AXIS2_PLACEMENT_3D('',#748,#593,#594);
#490=AXIS2_PLACEMENT_3D('',#750,#595,#596);
#491=AXIS2_PLACEMENT_3D('',#752,#597,#598);
#492=AXIS2_PLACEMENT_3D('',#753,#599,#600);
#493=AXIS2_PLACEMENT_3D('',#755,#601,#602);
#494=AXIS2_PLACEMENT_3D('',#756,#603,#604);
#495=AXIS2_PLACEMENT_3D('',#757,#605,#606);
#496=AXIS2_PLACEMENT_3D('',#759,#607,#608);
#497=AXIS2_PLACEMENT_3D('',#760,#609,#610);
#498=AXIS2_PLACEMENT_3D('',#761,#611,#612);
#499=AXIS2_PLACEMENT_3D('',#763,#613,#614);
#500=AXIS2_PLACEMENT_3D('',#764,#615,#616);
#501=AXIS2_PLACEMENT_3D('',#765,#617,#618);
#502=AXIS2_PLACEMENT_3D('',#767,#619,#620);
#503=AXIS2_PLACEMENT_3D('',#768,#621,#622);
#504=AXIS2_PLACEMENT_3D('',#769,#623,#624);
#505=AXIS2_PLACEMENT_3D('',#771,#625,#626);
#506=AXIS2_PLACEMENT_3D('',#772,#627,#628);
#507=AXIS2_PLACEMENT_3D('',#773,#629,#630);
#508=AXIS2_PLACEMENT_3D('',#775,#631,#632);
#509=AXIS2_PLACEMENT_3D('',#776,#633,#634);
#510=AXIS2_PLACEMENT_3D('',#777,#635,#636);
#511=AXIS2_PLACEMENT_3D('',#779,#637,#638);
#512=AXIS2_PLACEMENT_3D('',#780,#639,#640);
#513=AXIS2_PLACEMENT_3D('',#781,#641,#642);
#514=AXIS2_PLACEMENT_3D('',#783,#643,#644);
#515=AXIS2_PLACEMENT_3D('',#784,#645,#646);
#516=AXIS2_PLACEMENT_3D('',#785,#647,#648);
#517=AXIS2_PLACEMENT_3D('',#787,#649,#650);
#518=AXIS2_PLACEMENT_3D('',#788,#651,#652);
#519=AXIS2_PLACEMENT_3D('',#789,#653,#654);
#520=AXIS2_PLACEMENT_3D('',#791,#655,#656);
#521=AXIS2_PLACEMENT_3D('',#792,#657,#658);
#522=AXIS2_PLACEMENT_3D('',#793,#659,#660);
#523=AXIS2_PLACEMENT_3D('',#795,#661,#662);
#524=AXIS2_PLACEMENT_3D('',#796,#663,#664);
#525=AXIS2_PLACEMENT_3D('',#797,#665,#666);
#526=AXIS2_PLACEMENT_3D('',#799,#667,#668);
#527=AXIS2_PLACEMENT_3D('',#800,#669,#670);
#528=AXIS2_PLACEMENT_3D('',#801,#671,#672);
#529=AXIS2_PLACEMENT_3D('',#803,#673,#674);
#530=AXIS2_PLACEMENT_3D('',#804,#675,#676);
#531=AXIS2_PLACEMENT_3D('',#805,#677,#678);
#532=AXIS2_PLACEMENT_3D('',#807,#679,#680);
#533=AXIS2_PLACEMENT_3D('',#808,#681,#682);
#534=AXIS2_PLACEMENT_3D('',#809,#683,#684);
#535=AXIS2_PLACEMENT_3D('',#811,#685,#686);
#536=AXIS2_PLACEMENT_3D('',#812,#687,#688);
#537=AXIS2_PLACEMENT_3D('',#813,#689,#690);
#538=AXIS2_PLACEMENT_3D('',#815,#691,#692);
#539=DIRECTION('',(0.,0.,1.));
#540=DIRECTION('',(1.,0.,0.));
#541=DIRECTION('',(0.,-1.,0.));
#542=DIRECTION('',(1.,0.,0.));
#543=DIRECTION('',(1.,0.,0.));
#544=DIRECTION('',(0.,0.,1.));
#545=DIRECTION('',(1.,0.,0.));
#546=DIRECTION('',(0.,0.,1.));
#547=DIRECTION('',(0.,-1.,0.));
#548=DIRECTION('',(1.,0.,0.));
#549=DIRECTION('',(0.,0.,1.));
#550=DIRECTION('',(1.,0.,0.));
#551=DIRECTION('',(0.,0.,1.));
#552=DIRECTION('',(1.,0.,0.));
#553=DIRECTION('',(0.,0.,1.));
#554=DIRECTION('',(1.,0.,0.));
#555=DIRECTION('',(2.09476042382105E-16,-1.,0.));
#556=DIRECTION('',(0.,1.,0.));
#557=DIRECTION('',(0.,0.,1.));
#558=DIRECTION('',(1.,0.,0.));
#559=DIRECTION('',(2.09476042382105E-16,-1.,0.));
#560=DIRECTION('',(0.,-1.,0.));
#561=DIRECTION('',(-1.,0.,0.));
#562=DIRECTION('',(0.,0.,1.));
#563=DIRECTION('',(-1.,0.,0.));
#564=DIRECTION('',(0.,-1.,0.));
#565=DIRECTION('',(-1.,0.,0.));
#566=DIRECTION('',(0.,-1.,0.));
#567=DIRECTION('',(-1.,0.,0.));
#568=DIRECTION('',(0.,-1.,0.));
#569=DIRECTION('',(-1.,0.,0.));
#570=DIRECTION('',(0.,-1.,0.));
#571=DIRECTION('',(-1.,0.,0.));
#572=DIRECTION('',(0.,-1.,0.));
#573=DIRECTION('',(-1.,0.,0.));
#574=DIRECTION('',(0.,-1.,0.));
#575=DIRECTION('',(-1.,0.,0.));
#576=DIRECTION('',(0.,-1.,0.));
#577=DIRECTION('',(-1.,0.,0.));
#578=DIRECTION('',(0.,-1.,0.));
#579=DIRECTION('',(-1.,-2.09476042382105E-16,0.));
#580=DIRECTION('',(2.09476042382105E-16,-1.,0.));
#581=DIRECTION('',(1.,2.09476042382105E-16,0.));
#582=DIRECTION('',(2.09476042382105E-16,-1.,0.));
#583=DIRECTION('',(1.,2.09476042382105E-16,0.));
#584=DIRECTION('',(2.09476042382105E-16,-1.,0.));
#585=DIRECTION('',(1.,2.09476042382105E-16,0.));
#586=DIRECTION('',(2.09476042382105E-16,-1.,0.));
#587=DIRECTION('',(1.,2.09476042382105E-16,0.));
#588=DIRECTION('',(2.09476042382105E-16,-1.,0.));
#589=DIRECTION('',(1.,2.09476042382105E-16,0.));
#590=DIRECTION('',(2.09476042382105E-16,-1.,0.));
#591=DIRECTION('',(1.,2.09476042382105E-16,0.));
#592=DIRECTION('',(2.09476042382105E-16,-1.,0.));
#593=DIRECTION('',(1.,2.09476042382105E-16,0.));
#594=DIRECTION('',(2.09476042382105E-16,-1.,0.));
#595=DIRECTION('',(1.,2.09476042382105E-16,0.));
#596=DIRECTION('',(2.09476042382105E-16,-1.,0.));
#597=DIRECTION('',(-1.,0.,0.));
#598=DIRECTION('',(0.,0.,1.));
#599=DIRECTION('',(-1.,0.,0.));
#600=DIRECTION('',(0.,-1.,0.));
#601=DIRECTION('',(-1.,0.,0.));
#602=DIRECTION('',(0.,-1.,0.));
#603=DIRECTION('',(-1.,0.,0.));
#604=DIRECTION('',(0.,0.,1.));
#605=DIRECTION('',(-1.,0.,0.));
#606=DIRECTION('',(0.,-1.,0.));
#607=DIRECTION('',(-1.,0.,0.));
#608=DIRECTION('',(0.,-1.,0.));
#609=DIRECTION('',(-1.,0.,0.));
#610=DIRECTION('',(0.,0.,1.));
#611=DIRECTION('',(-1.,0.,0.));
#612=DIRECTION('',(0.,-1.,0.));
#613=DIRECTION('',(-1.,0.,0.));
#614=DIRECTION('',(0.,-1.,0.));
#615=DIRECTION('',(-1.,0.,0.));
#616=DIRECTION('',(0.,0.,1.));
#617=DIRECTION('',(-1.,0.,0.));
#618=DIRECTION('',(0.,-1.,0.));
#619=DIRECTION('',(-1.,0.,0.));
#620=DIRECTION('',(0.,-1.,0.));
#621=DIRECTION('',(-1.,0.,0.));
#622=DIRECTION('',(0.,0.,1.));
#623=DIRECTION('',(-1.,0.,0.));
#624=DIRECTION('',(0.,-1.,0.));
#625=DIRECTION('',(-1.,0.,0.));
#626=DIRECTION('',(0.,-1.,0.));
#627=DIRECTION('',(-1.,0.,0.));
#628=DIRECTION('',(0.,0.,1.));
#629=DIRECTION('',(-1.,0.,0.));
#630=DIRECTION('',(0.,-1.,0.));
#631=DIRECTION('',(-1.,0.,0.));
#632=DIRECTION('',(0.,-1.,0.));
#633=DIRECTION('',(-1.,0.,0.));
#634=DIRECTION('',(0.,0.,1.));
#635=DIRECTION('',(-1.,0.,0.));
#636=DIRECTION('',(0.,-1.,0.));
#637=DIRECTION('',(-1.,0.,0.));
#638=DIRECTION('',(0.,-1.,0.));
#639=DIRECTION('',(-1.,0.,0.));
#640=DIRECTION('',(0.,0.,1.));
#641=DIRECTION('',(-1.,0.,0.));
#642=DIRECTION('',(0.,-1.,0.));
#643=DIRECTION('',(-1.,0.,0.));
#644=DIRECTION('',(0.,-1.,0.));
#645=DIRECTION('',(1.,2.09476042382105E-16,0.));
#646=DIRECTION('',(-2.09476042382105E-16,1.,0.));
#647=DIRECTION('',(1.,2.09476042382105E-16,0.));
#648=DIRECTION('',(2.09476042382105E-16,-1.,0.));
#649=DIRECTION('',(1.,2.09476042382105E-16,0.));
#650=DIRECTION('',(2.09476042382105E-16,-1.,0.));
#651=DIRECTION('',(1.,2.09476042382105E-16,0.));
#652=DIRECTION('',(-2.09476042382105E-16,1.,0.));
#653=DIRECTION('',(1.,2.09476042382105E-16,0.));
#654=DIRECTION('',(2.09476042382105E-16,-1.,0.));
#655=DIRECTION('',(1.,2.09476042382105E-16,0.));
#656=DIRECTION('',(2.09476042382105E-16,-1.,0.));
#657=DIRECTION('',(1.,2.09476042382105E-16,0.));
#658=DIRECTION('',(-2.09476042382105E-16,1.,0.));
#659=DIRECTION('',(1.,2.09476042382105E-16,0.));
#660=DIRECTION('',(2.09476042382105E-16,-1.,0.));
#661=DIRECTION('',(1.,2.09476042382105E-16,0.));
#662=DIRECTION('',(2.09476042382105E-16,-1.,0.));
#663=DIRECTION('',(1.,2.09476042382105E-16,0.));
#664=DIRECTION('',(-2.09476042382105E-16,1.,0.));
#665=DIRECTION('',(1.,2.09476042382105E-16,0.));
#666=DIRECTION('',(2.09476042382105E-16,-1.,0.));
#667=DIRECTION('',(1.,2.09476042382105E-16,0.));
#668=DIRECTION('',(2.09476042382105E-16,-1.,0.));
#669=DIRECTION('',(1.,2.09476042382105E-16,0.));
#670=DIRECTION('',(-2.09476042382105E-16,1.,0.));
#671=DIRECTION('',(1.,2.09476042382105E-16,0.));
#672=DIRECTION('',(2.09476042382105E-16,-1.,0.));
#673=DIRECTION('',(1.,2.09476042382105E-16,0.));
#674=DIRECTION('',(2.09476042382105E-16,-1.,0.));
#675=DIRECTION('',(1.,2.09476042382105E-16,0.));
#676=DIRECTION('',(-2.09476042382105E-16,1.,0.));
#677=DIRECTION('',(1.,2.09476042382105E-16,0.));
#678=DIRECTION('',(2.09476042382105E-16,-1.,0.));
#679=DIRECTION('',(1.,2.09476042382105E-16,0.));
#680=DIRECTION('',(2.09476042382105E-16,-1.,0.));
#681=DIRECTION('',(1.,2.09476042382105E-16,0.));
#682=DIRECTION('',(-2.09476042382105E-16,1.,0.));
#683=DIRECTION('',(1.,2.09476042382105E-16,0.));
#684=DIRECTION('',(2.09476042382105E-16,-1.,0.));
#685=DIRECTION('',(1.,2.09476042382105E-16,0.));
#686=DIRECTION('',(2.09476042382105E-16,-1.,0.));
#687=DIRECTION('',(1.,2.09476042382105E-16,0.));
#688=DIRECTION('',(-2.09476042382105E-16,1.,0.));
#689=DIRECTION('',(1.,2.09476042382105E-16,0.));
#690=DIRECTION('',(2.09476042382105E-16,-1.,0.));
#691=DIRECTION('',(1.,2.09476042382105E-16,0.));
#692=DIRECTION('',(2.09476042382105E-16,-1.,0.));
#693=CARTESIAN_POINT('',(0.,0.,0.));
#694=CARTESIAN_POINT('',(0.365,0.53,1.));
#695=CARTESIAN_POINT('',(0.365,0.53,1.));
#696=CARTESIAN_POINT('',(0.019,0.53,1.));
#697=CARTESIAN_POINT('',(0.711,0.53,1.));
#698=CARTESIAN_POINT('',(0.711,0.53,1.));
#699=CARTESIAN_POINT('',(0.711,0.53,0.981));
#700=CARTESIAN_POINT('',(0.365,0.53,0.981));
#701=CARTESIAN_POINT('',(0.019,0.53,0.981));
#702=CARTESIAN_POINT('',(0.019,0.53,1.));
#703=CARTESIAN_POINT('',(0.365,0.,1.));
#704=CARTESIAN_POINT('',(0.711,0.,1.));
#705=CARTESIAN_POINT('',(0.711,0.,1.));
#706=CARTESIAN_POINT('',(0.711,0.,0.981));
#707=CARTESIAN_POINT('',(0.365,0.,1.));
#708=CARTESIAN_POINT('',(0.019,0.,1.));
#709=CARTESIAN_POINT('',(0.019,0.,1.));
#710=CARTESIAN_POINT('',(0.019,0.,0.981));
#711=CARTESIAN_POINT('',(0.365,0.,0.981));
#712=CARTESIAN_POINT('',(0.365,0.265,1.));
#713=CARTESIAN_POINT('',(0.711,0.265,1.));
#714=CARTESIAN_POINT('',(0.019,0.265,1.));
#715=CARTESIAN_POINT('',(0.365,0.265,0.981));
#716=CARTESIAN_POINT('',(0.711,0.265,0.981));
#717=CARTESIAN_POINT('',(0.019,0.265,0.981));
#718=CARTESIAN_POINT('',(0.019,0.265,1.));
#719=CARTESIAN_POINT('',(0.019,0.02,0.9905));
#720=CARTESIAN_POINT('',(0.019,0.016,0.9905));
#721=CARTESIAN_POINT('',(0.019,0.084,0.9905));
#722=CARTESIAN_POINT('',(0.019,0.08,0.9905));
#723=CARTESIAN_POINT('',(0.019,0.148,0.9905));
#724=CARTESIAN_POINT('',(0.019,0.144,0.9905));
#725=CARTESIAN_POINT('',(0.019,0.212,0.9905));
#726=CARTESIAN_POINT('',(0.019,0.208,0.9905));
#727=CARTESIAN_POINT('',(0.019,0.276,0.9905));
#728=CARTESIAN_POINT('',(0.019,0.272,0.9905));
#729=CARTESIAN_POINT('',(0.019,0.34,0.9905));
#730=CARTESIAN_POINT('',(0.019,0.336,0.9905));
#731=CARTESIAN_POINT('',(0.019,0.404,0.9905));
#732=CARTESIAN_POINT('',(0.019,0.4,0.9905));
#733=CARTESIAN_POINT('',(0.019,0.468,0.9905));
#734=CARTESIAN_POINT('',(0.019,0.464,0.9905));
#735=CARTESIAN_POINT('',(0.711,0.265,1.));
#736=CARTESIAN_POINT('',(0.711,0.02,0.9905));
#737=CARTESIAN_POINT('',(0.711,0.016,0.9905));
#738=CARTESIAN_POINT('',(0.711,0.084,0.9905));
#739=CARTESIAN_POINT('',(0.711,0.08,0.9905));
#740=CARTESIAN_POINT('',(0.711,0.148,0.9905));
#741=CARTESIAN_POINT('',(0.711,0.144,0.9905));
#742=CARTESIAN_POINT('',(0.711,0.212,0.9905));
#743=CARTESIAN_POINT('',(0.711,0.208,0.9905));
#744=CARTESIAN_POINT('',(0.711,0.276,0.9905));
#745=CARTESIAN_POINT('',(0.711,0.272,0.9905));
#746=CARTESIAN_POINT('',(0.711,0.34,0.9905));
#747=CARTESIAN_POINT('',(0.711,0.336,0.9905));
#748=CARTESIAN_POINT('',(0.711,0.404,0.9905));
#749=CARTESIAN_POINT('',(0.711,0.4,0.9905));
#750=CARTESIAN_POINT('',(0.711,0.468,0.9905));
#751=CARTESIAN_POINT('',(0.711,0.464,0.9905));
#752=CARTESIAN_POINT('',(0.046,0.468,0.9905));
#753=CARTESIAN_POINT('',(0.046,0.468,0.9905));
#754=CARTESIAN_POINT('',(0.046,0.464,0.9905));
#755=CARTESIAN_POINT('',(0.046,0.244,0.9905));
#756=CARTESIAN_POINT('',(0.046,0.404,0.9905));
#757=CARTESIAN_POINT('',(0.046,0.404,0.9905));
#758=CARTESIAN_POINT('',(0.046,0.4,0.9905));
#759=CARTESIAN_POINT('',(0.046,0.244,0.9905));
#760=CARTESIAN_POINT('',(0.046,0.34,0.9905));
#761=CARTESIAN_POINT('',(0.046,0.34,0.9905));
#762=CARTESIAN_POINT('',(0.046,0.336,0.9905));
#763=CARTESIAN_POINT('',(0.046,0.244,0.9905));
#764=CARTESIAN_POINT('',(0.046,0.276,0.9905));
#765=CARTESIAN_POINT('',(0.046,0.276,0.9905));
#766=CARTESIAN_POINT('',(0.046,0.272,0.9905));
#767=CARTESIAN_POINT('',(0.046,0.244,0.9905));
#768=CARTESIAN_POINT('',(0.046,0.212,0.9905));
#769=CARTESIAN_POINT('',(0.046,0.212,0.9905));
#770=CARTESIAN_POINT('',(0.046,0.208,0.9905));
#771=CARTESIAN_POINT('',(0.046,0.244,0.9905));
#772=CARTESIAN_POINT('',(0.046,0.148,0.9905));
#773=CARTESIAN_POINT('',(0.046,0.148,0.9905));
#774=CARTESIAN_POINT('',(0.046,0.144,0.9905));
#775=CARTESIAN_POINT('',(0.046,0.244,0.9905));
#776=CARTESIAN_POINT('',(0.046,0.084,0.9905));
#777=CARTESIAN_POINT('',(0.046,0.084,0.9905));
#778=CARTESIAN_POINT('',(0.046,0.08,0.9905));
#779=CARTESIAN_POINT('',(0.046,0.244,0.9905));
#780=CARTESIAN_POINT('',(0.046,0.02,0.9905));
#781=CARTESIAN_POINT('',(0.046,0.02,0.9905));
#782=CARTESIAN_POINT('',(0.046,0.016,0.9905));
#783=CARTESIAN_POINT('',(0.046,0.244,0.9905));
#784=CARTESIAN_POINT('',(0.684,0.468,0.9905));
#785=CARTESIAN_POINT('',(0.684,0.468,0.9905));
#786=CARTESIAN_POINT('',(0.684,0.464,0.9905));
#787=CARTESIAN_POINT('',(0.684,0.244,0.9905));
#788=CARTESIAN_POINT('',(0.684,0.404,0.9905));
#789=CARTESIAN_POINT('',(0.684,0.404,0.9905));
#790=CARTESIAN_POINT('',(0.684,0.4,0.9905));
#791=CARTESIAN_POINT('',(0.684,0.244,0.9905));
#792=CARTESIAN_POINT('',(0.684,0.34,0.9905));
#793=CARTESIAN_POINT('',(0.684,0.34,0.9905));
#794=CARTESIAN_POINT('',(0.684,0.336,0.9905));
#795=CARTESIAN_POINT('',(0.684,0.244,0.9905));
#796=CARTESIAN_POINT('',(0.684,0.276,0.9905));
#797=CARTESIAN_POINT('',(0.684,0.276,0.9905));
#798=CARTESIAN_POINT('',(0.684,0.272,0.9905));
#799=CARTESIAN_POINT('',(0.684,0.244,0.9905));
#800=CARTESIAN_POINT('',(0.684,0.212,0.9905));
#801=CARTESIAN_POINT('',(0.684,0.212,0.9905));
#802=CARTESIAN_POINT('',(0.684,0.208,0.9905));
#803=CARTESIAN_POINT('',(0.684,0.244,0.9905));
#804=CARTESIAN_POINT('',(0.684,0.148,0.9905));
#805=CARTESIAN_POINT('',(0.684,0.148,0.9905));
#806=CARTESIAN_POINT('',(0.684,0.144,0.9905));
#807=CARTESIAN_POINT('',(0.684,0.244,0.9905));
#808=CARTESIAN_POINT('',(0.684,0.084,0.9905));
#809=CARTESIAN_POINT('',(0.684,0.084,0.9905));
#810=CARTESIAN_POINT('',(0.684,0.08,0.9905));
#811=CARTESIAN_POINT('',(0.684,0.244,0.9905));
#812=CARTESIAN_POINT('',(0.684,0.02,0.9905));
#813=CARTESIAN_POINT('',(0.684,0.02,0.9905));
#814=CARTESIAN_POINT('',(0.684,0.016,0.9905));
#815=CARTESIAN_POINT('',(0.684,0.244,0.9905));
#816=MECHANICAL_DESIGN_GEOMETRIC_PRESENTATION_REPRESENTATION('',(#457),
#817);
#817=(
GEOMETRIC_REPRESENTATION_CONTEXT(3)
GLOBAL_UNCERTAINTY_ASSIGNED_CONTEXT((#818))
GLOBAL_UNIT_ASSIGNED_CONTEXT((#821,#820,#819))
REPRESENTATION_CONTEXT('kp1 - Oberboden','TOP_LEVEL_ASSEMBLY_PART')
);
#818=UNCERTAINTY_MEASURE_WITH_UNIT(LENGTH_MEASURE(1.E-8),#821,
'DISTANCE_ACCURACY_VALUE','Maximum Tolerance applied to model');
#819=(
NAMED_UNIT(*)
SI_UNIT($,.STERADIAN.)
SOLID_ANGLE_UNIT()
);
#820=(
NAMED_UNIT(*)
PLANE_ANGLE_UNIT()
SI_UNIT($,.RADIAN.)
);
#821=(
LENGTH_UNIT()
NAMED_UNIT(*)
SI_UNIT($,.METRE.)
);
#822=PRODUCT_DEFINITION_SHAPE('','',#823);
#823=PRODUCT_DEFINITION('','',#825,#824);
#824=PRODUCT_DEFINITION_CONTEXT('',#831,'design');
#825=PRODUCT_DEFINITION_FORMATION_WITH_SPECIFIED_SOURCE('','',#827,
 .NOT_KNOWN.);
#826=PRODUCT_RELATED_PRODUCT_CATEGORY('','',(#827));
#827=PRODUCT('kp1 - Oberboden','kp1 - Oberboden','kp1 - Oberboden',(#829));
#828=PRODUCT_CATEGORY('','');
#829=PRODUCT_CONTEXT('',#831,'mechanical');
#830=APPLICATION_PROTOCOL_DEFINITION('international standard',
'ap242_managed_model_based_3d_engineering',2020,#831);
#831=APPLICATION_CONTEXT('managed model based 3d engineering');
ENDSEC;
END-ISO-10303-21;
