ISO-10303-21;
HEADER;
/* Generated by software containing ST-Developer
 * from STEP Tools, Inc. (www.steptools.com) 
 */
/* OPTION: using custom renumber hook */

FILE_DESCRIPTION(
/* description */ ('STEP AP242 Edition 2',
'CAx-IF Rec.Pracs.---Representation and Presentation of Product Manufa
cturing Information (PMI)---4.0---2014-10-13',
'CAx-IF Rec.Pracs.---3D Tessellated Geometry---0.4---2014-09-14','2;1',
'CAx-IF Rec.Pracs.---User Defined Attributes---1.5---2016-08-15'),
/* implementation_level */ '2;1');

FILE_NAME(
/* name */ 'Part Studio 1 - kp1 - Rechte Seite',
/* time_stamp */ '2026-10-03T15:29:51Z',
/* author */ (''),
/* organization */ (''),
/* preprocessor_version */ 'ST-DEVELOPER v20',
/* originating_system */ 'ONSHAPE BY PTC INC, 1.221',
/* authorisation */ '  ');

FILE_SCHEMA (('AP242_MANAGED_MODEL_BASED_3D_ENGINEERING_MIM_LF { 1 0 10303 442 3 1 4 }'));
ENDSEC;

DATA;
#10=SHAPE_REPRESENTATION_RELATIONSHIP('','',#927,#11);
#11=ADVANCED_BREP_SHAPE_REPRESENTATION('',(#925),#1651);
#12=CYLINDRICAL_SURFACE('',#973,0.004);
#13=CYLINDRICAL_SURFACE('',#976,0.004);
#14=CYLINDRICAL_SURFACE('',#979,0.004);
#15=CYLINDRICAL_SURFACE('',#982,0.004);
#16=CYLINDRICAL_SURFACE('',#985,0.004);
#17=CYLINDRICAL_SURFACE('',#988,0.004);
#18=CYLINDRICAL_SURFACE('',#991,0.004);
#19=CYLINDRICAL_SURFACE('',#994,0.004);
#20=CYLINDRICAL_SURFACE('',#997,0.004);
#21=CYLINDRICAL_SURFACE('',#1000,0.004);
#22=CYLINDRICAL_SURFACE('',#1003,0.004);
#23=CYLINDRICAL_SURFACE('',#1006,0.004);
#24=CYLINDRICAL_SURFACE('',#1009,0.004);
#25=CYLINDRICAL_SURFACE('',#1012,0.004);
#26=CYLINDRICAL_SURFACE('',#1015,0.004);
#27=CYLINDRICAL_SURFACE('',#1018,0.004);
#28=CYLINDRICAL_SURFACE('',#1021,0.0025);
#29=CYLINDRICAL_SURFACE('',#1024,0.0025);
#30=CYLINDRICAL_SURFACE('',#1027,0.0025);
#31=CYLINDRICAL_SURFACE('',#1030,0.0025);
#32=CYLINDRICAL_SURFACE('',#1033,0.0025);
#33=CYLINDRICAL_SURFACE('',#1036,0.0025);
#34=CYLINDRICAL_SURFACE('',#1039,0.0025);
#35=CYLINDRICAL_SURFACE('',#1042,0.0025);
#36=CYLINDRICAL_SURFACE('',#1045,0.0025);
#37=CYLINDRICAL_SURFACE('',#1048,0.0025);
#38=CYLINDRICAL_SURFACE('',#1051,0.0025);
#39=CYLINDRICAL_SURFACE('',#1054,0.0025);
#40=CYLINDRICAL_SURFACE('',#1057,0.0025);
#41=CYLINDRICAL_SURFACE('',#1060,0.0025);
#42=CYLINDRICAL_SURFACE('',#1063,0.0025);
#43=CYLINDRICAL_SURFACE('',#1066,0.0025);
#44=CYLINDRICAL_SURFACE('',#1069,0.0025);
#45=CYLINDRICAL_SURFACE('',#1072,0.0025);
#46=CYLINDRICAL_SURFACE('',#1075,0.0025);
#47=CYLINDRICAL_SURFACE('',#1078,0.0025);
#48=CYLINDRICAL_SURFACE('',#1081,0.0501622602467111);
#49=CIRCLE('',#934,0.0501622602467111);
#50=CIRCLE('',#936,0.0501622602467111);
#51=CIRCLE('',#937,0.0025);
#52=CIRCLE('',#938,0.0025);
#53=CIRCLE('',#939,0.0025);
#54=CIRCLE('',#940,0.0025);
#55=CIRCLE('',#941,0.0025);
#56=CIRCLE('',#942,0.0025);
#57=CIRCLE('',#943,0.0025);
#58=CIRCLE('',#944,0.0025);
#59=CIRCLE('',#945,0.0025);
#60=CIRCLE('',#946,0.0025);
#61=CIRCLE('',#947,0.0025);
#62=CIRCLE('',#948,0.0025);
#63=CIRCLE('',#949,0.0025);
#64=CIRCLE('',#950,0.0025);
#65=CIRCLE('',#951,0.0025);
#66=CIRCLE('',#952,0.0025);
#67=CIRCLE('',#953,0.0025);
#68=CIRCLE('',#954,0.0025);
#69=CIRCLE('',#955,0.0025);
#70=CIRCLE('',#956,0.0025);
#71=CIRCLE('',#957,0.004);
#72=CIRCLE('',#958,0.004);
#73=CIRCLE('',#959,0.004);
#74=CIRCLE('',#960,0.004);
#75=CIRCLE('',#961,0.004);
#76=CIRCLE('',#962,0.004);
#77=CIRCLE('',#963,0.004);
#78=CIRCLE('',#964,0.004);
#79=CIRCLE('',#965,0.004);
#80=CIRCLE('',#966,0.004);
#81=CIRCLE('',#967,0.004);
#82=CIRCLE('',#968,0.004);
#83=CIRCLE('',#969,0.004);
#84=CIRCLE('',#970,0.004);
#85=CIRCLE('',#971,0.004);
#86=CIRCLE('',#972,0.004);
#87=CIRCLE('',#974,0.004);
#88=CIRCLE('',#977,0.004);
#89=CIRCLE('',#980,0.004);
#90=CIRCLE('',#983,0.004);
#91=CIRCLE('',#986,0.004);
#92=CIRCLE('',#989,0.004);
#93=CIRCLE('',#992,0.004);
#94=CIRCLE('',#995,0.004);
#95=CIRCLE('',#998,0.004);
#96=CIRCLE('',#1001,0.004);
#97=CIRCLE('',#1004,0.004);
#98=CIRCLE('',#1007,0.004);
#99=CIRCLE('',#1010,0.004);
#100=CIRCLE('',#1013,0.004);
#101=CIRCLE('',#1016,0.004);
#102=CIRCLE('',#1019,0.004);
#103=CIRCLE('',#1022,0.0025);
#104=CIRCLE('',#1025,0.0025);
#105=CIRCLE('',#1028,0.0025);
#106=CIRCLE('',#1031,0.0025);
#107=CIRCLE('',#1034,0.0025);
#108=CIRCLE('',#1037,0.0025);
#109=CIRCLE('',#1040,0.0025);
#110=CIRCLE('',#1043,0.0025);
#111=CIRCLE('',#1046,0.0025);
#112=CIRCLE('',#1049,0.0025);
#113=CIRCLE('',#1052,0.0025);
#114=CIRCLE('',#1055,0.0025);
#115=CIRCLE('',#1058,0.0025);
#116=CIRCLE('',#1061,0.0025);
#117=CIRCLE('',#1064,0.0025);
#118=CIRCLE('',#1067,0.0025);
#119=CIRCLE('',#1070,0.0025);
#120=CIRCLE('',#1073,0.0025);
#121=CIRCLE('',#1076,0.0025);
#122=CIRCLE('',#1079,0.0025);
#123=ORIENTED_EDGE('',*,*,#295,.F.);
#124=ORIENTED_EDGE('',*,*,#296,.T.);
#125=ORIENTED_EDGE('',*,*,#297,.T.);
#126=ORIENTED_EDGE('',*,*,#298,.F.);
#127=ORIENTED_EDGE('',*,*,#297,.F.);
#128=ORIENTED_EDGE('',*,*,#299,.T.);
#129=ORIENTED_EDGE('',*,*,#300,.T.);
#130=ORIENTED_EDGE('',*,*,#301,.F.);
#131=ORIENTED_EDGE('',*,*,#300,.F.);
#132=ORIENTED_EDGE('',*,*,#302,.F.);
#133=ORIENTED_EDGE('',*,*,#303,.T.);
#134=ORIENTED_EDGE('',*,*,#304,.T.);
#135=ORIENTED_EDGE('',*,*,#305,.F.);
#136=ORIENTED_EDGE('',*,*,#295,.T.);
#137=ORIENTED_EDGE('',*,*,#306,.T.);
#138=ORIENTED_EDGE('',*,*,#303,.F.);
#139=ORIENTED_EDGE('',*,*,#307,.F.);
#140=ORIENTED_EDGE('',*,*,#304,.F.);
#141=ORIENTED_EDGE('',*,*,#306,.F.);
#142=ORIENTED_EDGE('',*,*,#298,.T.);
#143=ORIENTED_EDGE('',*,*,#301,.T.);
#144=ORIENTED_EDGE('',*,*,#308,.F.);
#145=ORIENTED_EDGE('',*,*,#309,.F.);
#146=ORIENTED_EDGE('',*,*,#310,.F.);
#147=ORIENTED_EDGE('',*,*,#311,.F.);
#148=ORIENTED_EDGE('',*,*,#312,.F.);
#149=ORIENTED_EDGE('',*,*,#313,.F.);
#150=ORIENTED_EDGE('',*,*,#314,.F.);
#151=ORIENTED_EDGE('',*,*,#315,.F.);
#152=ORIENTED_EDGE('',*,*,#316,.F.);
#153=ORIENTED_EDGE('',*,*,#317,.F.);
#154=ORIENTED_EDGE('',*,*,#318,.F.);
#155=ORIENTED_EDGE('',*,*,#319,.F.);
#156=ORIENTED_EDGE('',*,*,#320,.F.);
#157=ORIENTED_EDGE('',*,*,#321,.F.);
#158=ORIENTED_EDGE('',*,*,#322,.F.);
#159=ORIENTED_EDGE('',*,*,#323,.F.);
#160=ORIENTED_EDGE('',*,*,#324,.F.);
#161=ORIENTED_EDGE('',*,*,#325,.F.);
#162=ORIENTED_EDGE('',*,*,#326,.F.);
#163=ORIENTED_EDGE('',*,*,#327,.F.);
#164=ORIENTED_EDGE('',*,*,#328,.F.);
#165=ORIENTED_EDGE('',*,*,#329,.T.);
#166=ORIENTED_EDGE('',*,*,#330,.T.);
#167=ORIENTED_EDGE('',*,*,#331,.T.);
#168=ORIENTED_EDGE('',*,*,#332,.T.);
#169=ORIENTED_EDGE('',*,*,#333,.T.);
#170=ORIENTED_EDGE('',*,*,#334,.T.);
#171=ORIENTED_EDGE('',*,*,#335,.T.);
#172=ORIENTED_EDGE('',*,*,#336,.T.);
#173=ORIENTED_EDGE('',*,*,#337,.T.);
#174=ORIENTED_EDGE('',*,*,#338,.T.);
#175=ORIENTED_EDGE('',*,*,#339,.T.);
#176=ORIENTED_EDGE('',*,*,#340,.T.);
#177=ORIENTED_EDGE('',*,*,#341,.T.);
#178=ORIENTED_EDGE('',*,*,#342,.T.);
#179=ORIENTED_EDGE('',*,*,#343,.T.);
#180=ORIENTED_EDGE('',*,*,#344,.T.);
#181=ORIENTED_EDGE('',*,*,#302,.T.);
#182=ORIENTED_EDGE('',*,*,#299,.F.);
#183=ORIENTED_EDGE('',*,*,#296,.F.);
#184=ORIENTED_EDGE('',*,*,#305,.T.);
#185=ORIENTED_EDGE('',*,*,#345,.T.);
#186=ORIENTED_EDGE('',*,*,#344,.F.);
#187=ORIENTED_EDGE('',*,*,#345,.F.);
#188=ORIENTED_EDGE('',*,*,#346,.T.);
#189=ORIENTED_EDGE('',*,*,#343,.F.);
#190=ORIENTED_EDGE('',*,*,#346,.F.);
#191=ORIENTED_EDGE('',*,*,#347,.T.);
#192=ORIENTED_EDGE('',*,*,#342,.F.);
#193=ORIENTED_EDGE('',*,*,#347,.F.);
#194=ORIENTED_EDGE('',*,*,#348,.T.);
#195=ORIENTED_EDGE('',*,*,#341,.F.);
#196=ORIENTED_EDGE('',*,*,#348,.F.);
#197=ORIENTED_EDGE('',*,*,#349,.T.);
#198=ORIENTED_EDGE('',*,*,#340,.F.);
#199=ORIENTED_EDGE('',*,*,#349,.F.);
#200=ORIENTED_EDGE('',*,*,#350,.T.);
#201=ORIENTED_EDGE('',*,*,#339,.F.);
#202=ORIENTED_EDGE('',*,*,#350,.F.);
#203=ORIENTED_EDGE('',*,*,#351,.T.);
#204=ORIENTED_EDGE('',*,*,#338,.F.);
#205=ORIENTED_EDGE('',*,*,#351,.F.);
#206=ORIENTED_EDGE('',*,*,#352,.T.);
#207=ORIENTED_EDGE('',*,*,#337,.F.);
#208=ORIENTED_EDGE('',*,*,#352,.F.);
#209=ORIENTED_EDGE('',*,*,#353,.T.);
#210=ORIENTED_EDGE('',*,*,#336,.F.);
#211=ORIENTED_EDGE('',*,*,#353,.F.);
#212=ORIENTED_EDGE('',*,*,#354,.T.);
#213=ORIENTED_EDGE('',*,*,#335,.F.);
#214=ORIENTED_EDGE('',*,*,#354,.F.);
#215=ORIENTED_EDGE('',*,*,#355,.T.);
#216=ORIENTED_EDGE('',*,*,#334,.F.);
#217=ORIENTED_EDGE('',*,*,#355,.F.);
#218=ORIENTED_EDGE('',*,*,#356,.T.);
#219=ORIENTED_EDGE('',*,*,#333,.F.);
#220=ORIENTED_EDGE('',*,*,#356,.F.);
#221=ORIENTED_EDGE('',*,*,#357,.T.);
#222=ORIENTED_EDGE('',*,*,#332,.F.);
#223=ORIENTED_EDGE('',*,*,#357,.F.);
#224=ORIENTED_EDGE('',*,*,#358,.T.);
#225=ORIENTED_EDGE('',*,*,#331,.F.);
#226=ORIENTED_EDGE('',*,*,#358,.F.);
#227=ORIENTED_EDGE('',*,*,#359,.T.);
#228=ORIENTED_EDGE('',*,*,#330,.F.);
#229=ORIENTED_EDGE('',*,*,#359,.F.);
#230=ORIENTED_EDGE('',*,*,#360,.T.);
#231=ORIENTED_EDGE('',*,*,#329,.F.);
#232=ORIENTED_EDGE('',*,*,#360,.F.);
#233=ORIENTED_EDGE('',*,*,#361,.F.);
#234=ORIENTED_EDGE('',*,*,#328,.T.);
#235=ORIENTED_EDGE('',*,*,#361,.T.);
#236=ORIENTED_EDGE('',*,*,#362,.F.);
#237=ORIENTED_EDGE('',*,*,#327,.T.);
#238=ORIENTED_EDGE('',*,*,#362,.T.);
#239=ORIENTED_EDGE('',*,*,#363,.F.);
#240=ORIENTED_EDGE('',*,*,#326,.T.);
#241=ORIENTED_EDGE('',*,*,#363,.T.);
#242=ORIENTED_EDGE('',*,*,#364,.F.);
#243=ORIENTED_EDGE('',*,*,#325,.T.);
#244=ORIENTED_EDGE('',*,*,#364,.T.);
#245=ORIENTED_EDGE('',*,*,#365,.F.);
#246=ORIENTED_EDGE('',*,*,#324,.T.);
#247=ORIENTED_EDGE('',*,*,#365,.T.);
#248=ORIENTED_EDGE('',*,*,#366,.F.);
#249=ORIENTED_EDGE('',*,*,#323,.T.);
#250=ORIENTED_EDGE('',*,*,#366,.T.);
#251=ORIENTED_EDGE('',*,*,#367,.F.);
#252=ORIENTED_EDGE('',*,*,#322,.T.);
#253=ORIENTED_EDGE('',*,*,#367,.T.);
#254=ORIENTED_EDGE('',*,*,#368,.F.);
#255=ORIENTED_EDGE('',*,*,#321,.T.);
#256=ORIENTED_EDGE('',*,*,#368,.T.);
#257=ORIENTED_EDGE('',*,*,#369,.F.);
#258=ORIENTED_EDGE('',*,*,#320,.T.);
#259=ORIENTED_EDGE('',*,*,#369,.T.);
#260=ORIENTED_EDGE('',*,*,#370,.F.);
#261=ORIENTED_EDGE('',*,*,#319,.T.);
#262=ORIENTED_EDGE('',*,*,#370,.T.);
#263=ORIENTED_EDGE('',*,*,#371,.F.);
#264=ORIENTED_EDGE('',*,*,#318,.T.);
#265=ORIENTED_EDGE('',*,*,#371,.T.);
#266=ORIENTED_EDGE('',*,*,#372,.F.);
#267=ORIENTED_EDGE('',*,*,#317,.T.);
#268=ORIENTED_EDGE('',*,*,#372,.T.);
#269=ORIENTED_EDGE('',*,*,#373,.F.);
#270=ORIENTED_EDGE('',*,*,#316,.T.);
#271=ORIENTED_EDGE('',*,*,#373,.T.);
#272=ORIENTED_EDGE('',*,*,#374,.F.);
#273=ORIENTED_EDGE('',*,*,#315,.T.);
#274=ORIENTED_EDGE('',*,*,#374,.T.);
#275=ORIENTED_EDGE('',*,*,#375,.F.);
#276=ORIENTED_EDGE('',*,*,#314,.T.);
#277=ORIENTED_EDGE('',*,*,#375,.T.);
#278=ORIENTED_EDGE('',*,*,#376,.F.);
#279=ORIENTED_EDGE('',*,*,#313,.T.);
#280=ORIENTED_EDGE('',*,*,#376,.T.);
#281=ORIENTED_EDGE('',*,*,#377,.F.);
#282=ORIENTED_EDGE('',*,*,#312,.T.);
#283=ORIENTED_EDGE('',*,*,#377,.T.);
#284=ORIENTED_EDGE('',*,*,#378,.F.);
#285=ORIENTED_EDGE('',*,*,#311,.T.);
#286=ORIENTED_EDGE('',*,*,#378,.T.);
#287=ORIENTED_EDGE('',*,*,#379,.F.);
#288=ORIENTED_EDGE('',*,*,#310,.T.);
#289=ORIENTED_EDGE('',*,*,#379,.T.);
#290=ORIENTED_EDGE('',*,*,#380,.F.);
#291=ORIENTED_EDGE('',*,*,#309,.T.);
#292=ORIENTED_EDGE('',*,*,#380,.T.);
#293=ORIENTED_EDGE('',*,*,#307,.T.);
#294=ORIENTED_EDGE('',*,*,#308,.T.);
#295=EDGE_CURVE('',#381,#382,#463,.T.);
#296=EDGE_CURVE('',#381,#383,#464,.T.);
#297=EDGE_CURVE('',#383,#384,#465,.T.);
#298=EDGE_CURVE('',#382,#384,#466,.T.);
#299=EDGE_CURVE('',#383,#385,#467,.F.);
#300=EDGE_CURVE('',#385,#386,#468,.T.);
#301=EDGE_CURVE('',#384,#386,#469,.T.);
#302=EDGE_CURVE('',#387,#385,#470,.T.);
#303=EDGE_CURVE('',#387,#388,#471,.T.);
#304=EDGE_CURVE('',#388,#386,#472,.T.);
#305=EDGE_CURVE('',#381,#387,#473,.F.);
#306=EDGE_CURVE('',#382,#388,#474,.T.);
#307=EDGE_CURVE('',#389,#389,#49,.T.);
#308=EDGE_CURVE('',#390,#390,#50,.T.);
#309=EDGE_CURVE('',#391,#391,#51,.T.);
#310=EDGE_CURVE('',#392,#392,#52,.T.);
#311=EDGE_CURVE('',#393,#393,#53,.T.);
#312=EDGE_CURVE('',#394,#394,#54,.T.);
#313=EDGE_CURVE('',#395,#395,#55,.T.);
#314=EDGE_CURVE('',#396,#396,#56,.T.);
#315=EDGE_CURVE('',#397,#397,#57,.T.);
#316=EDGE_CURVE('',#398,#398,#58,.T.);
#317=EDGE_CURVE('',#399,#399,#59,.T.);
#318=EDGE_CURVE('',#400,#400,#60,.T.);
#319=EDGE_CURVE('',#401,#401,#61,.T.);
#320=EDGE_CURVE('',#402,#402,#62,.T.);
#321=EDGE_CURVE('',#403,#403,#63,.T.);
#322=EDGE_CURVE('',#404,#404,#64,.T.);
#323=EDGE_CURVE('',#405,#405,#65,.T.);
#324=EDGE_CURVE('',#406,#406,#66,.T.);
#325=EDGE_CURVE('',#407,#407,#67,.T.);
#326=EDGE_CURVE('',#408,#408,#68,.T.);
#327=EDGE_CURVE('',#409,#409,#69,.T.);
#328=EDGE_CURVE('',#410,#410,#70,.T.);
#329=EDGE_CURVE('',#411,#411,#71,.T.);
#330=EDGE_CURVE('',#412,#412,#72,.T.);
#331=EDGE_CURVE('',#413,#413,#73,.T.);
#332=EDGE_CURVE('',#414,#414,#74,.T.);
#333=EDGE_CURVE('',#415,#415,#75,.T.);
#334=EDGE_CURVE('',#416,#416,#76,.T.);
#335=EDGE_CURVE('',#417,#417,#77,.T.);
#336=EDGE_CURVE('',#418,#418,#78,.T.);
#337=EDGE_CURVE('',#419,#419,#79,.T.);
#338=EDGE_CURVE('',#420,#420,#80,.T.);
#339=EDGE_CURVE('',#421,#421,#81,.T.);
#340=EDGE_CURVE('',#422,#422,#82,.T.);
#341=EDGE_CURVE('',#423,#423,#83,.T.);
#342=EDGE_CURVE('',#424,#424,#84,.T.);
#343=EDGE_CURVE('',#425,#425,#85,.T.);
#344=EDGE_CURVE('',#426,#426,#86,.T.);
#345=EDGE_CURVE('',#427,#427,#87,.T.);
#346=EDGE_CURVE('',#428,#428,#88,.T.);
#347=EDGE_CURVE('',#429,#429,#89,.T.);
#348=EDGE_CURVE('',#430,#430,#90,.T.);
#349=EDGE_CURVE('',#431,#431,#91,.T.);
#350=EDGE_CURVE('',#432,#432,#92,.T.);
#351=EDGE_CURVE('',#433,#433,#93,.T.);
#352=EDGE_CURVE('',#434,#434,#94,.T.);
#353=EDGE_CURVE('',#435,#435,#95,.T.);
#354=EDGE_CURVE('',#436,#436,#96,.T.);
#355=EDGE_CURVE('',#437,#437,#97,.T.);
#356=EDGE_CURVE('',#438,#438,#98,.T.);
#357=EDGE_CURVE('',#439,#439,#99,.T.);
#358=EDGE_CURVE('',#440,#440,#100,.T.);
#359=EDGE_CURVE('',#441,#441,#101,.T.);
#360=EDGE_CURVE('',#442,#442,#102,.T.);
#361=EDGE_CURVE('',#443,#443,#103,.T.);
#362=EDGE_CURVE('',#444,#444,#104,.T.);
#363=EDGE_CURVE('',#445,#445,#105,.T.);
#364=EDGE_CURVE('',#446,#446,#106,.T.);
#365=EDGE_CURVE('',#447,#447,#107,.T.);
#366=EDGE_CURVE('',#448,#448,#108,.T.);
#367=EDGE_CURVE('',#449,#449,#109,.T.);
#368=EDGE_CURVE('',#450,#450,#110,.T.);
#369=EDGE_CURVE('',#451,#451,#111,.T.);
#370=EDGE_CURVE('',#452,#452,#112,.T.);
#371=EDGE_CURVE('',#453,#453,#113,.T.);
#372=EDGE_CURVE('',#454,#454,#114,.T.);
#373=EDGE_CURVE('',#455,#455,#115,.T.);
#374=EDGE_CURVE('',#456,#456,#116,.T.);
#375=EDGE_CURVE('',#457,#457,#117,.T.);
#376=EDGE_CURVE('',#458,#458,#118,.T.);
#377=EDGE_CURVE('',#459,#459,#119,.T.);
#378=EDGE_CURVE('',#460,#460,#120,.T.);
#379=EDGE_CURVE('',#461,#461,#121,.T.);
#380=EDGE_CURVE('',#462,#462,#122,.T.);
#381=VERTEX_POINT('',#1405);
#382=VERTEX_POINT('',#1406);
#383=VERTEX_POINT('',#1408);
#384=VERTEX_POINT('',#1410);
#385=VERTEX_POINT('',#1414);
#386=VERTEX_POINT('',#1416);
#387=VERTEX_POINT('',#1420);
#388=VERTEX_POINT('',#1422);
#389=VERTEX_POINT('',#1429);
#390=VERTEX_POINT('',#1432);
#391=VERTEX_POINT('',#1434);
#392=VERTEX_POINT('',#1436);
#393=VERTEX_POINT('',#1438);
#394=VERTEX_POINT('',#1440);
#395=VERTEX_POINT('',#1442);
#396=VERTEX_POINT('',#1444);
#397=VERTEX_POINT('',#1446);
#398=VERTEX_POINT('',#1448);
#399=VERTEX_POINT('',#1450);
#400=VERTEX_POINT('',#1452);
#401=VERTEX_POINT('',#1454);
#402=VERTEX_POINT('',#1456);
#403=VERTEX_POINT('',#1458);
#404=VERTEX_POINT('',#1460);
#405=VERTEX_POINT('',#1462);
#406=VERTEX_POINT('',#1464);
#407=VERTEX_POINT('',#1466);
#408=VERTEX_POINT('',#1468);
#409=VERTEX_POINT('',#1470);
#410=VERTEX_POINT('',#1472);
#411=VERTEX_POINT('',#1474);
#412=VERTEX_POINT('',#1476);
#413=VERTEX_POINT('',#1478);
#414=VERTEX_POINT('',#1480);
#415=VERTEX_POINT('',#1482);
#416=VERTEX_POINT('',#1484);
#417=VERTEX_POINT('',#1486);
#418=VERTEX_POINT('',#1488);
#419=VERTEX_POINT('',#1490);
#420=VERTEX_POINT('',#1492);
#421=VERTEX_POINT('',#1494);
#422=VERTEX_POINT('',#1496);
#423=VERTEX_POINT('',#1498);
#424=VERTEX_POINT('',#1500);
#425=VERTEX_POINT('',#1502);
#426=VERTEX_POINT('',#1504);
#427=VERTEX_POINT('',#1507);
#428=VERTEX_POINT('',#1511);
#429=VERTEX_POINT('',#1515);
#430=VERTEX_POINT('',#1519);
#431=VERTEX_POINT('',#1523);
#432=VERTEX_POINT('',#1527);
#433=VERTEX_POINT('',#1531);
#434=VERTEX_POINT('',#1535);
#435=VERTEX_POINT('',#1539);
#436=VERTEX_POINT('',#1543);
#437=VERTEX_POINT('',#1547);
#438=VERTEX_POINT('',#1551);
#439=VERTEX_POINT('',#1555);
#440=VERTEX_POINT('',#1559);
#441=VERTEX_POINT('',#1563);
#442=VERTEX_POINT('',#1567);
#443=VERTEX_POINT('',#1571);
#444=VERTEX_POINT('',#1575);
#445=VERTEX_POINT('',#1579);
#446=VERTEX_POINT('',#1583);
#447=VERTEX_POINT('',#1587);
#448=VERTEX_POINT('',#1591);
#449=VERTEX_POINT('',#1595);
#450=VERTEX_POINT('',#1599);
#451=VERTEX_POINT('',#1603);
#452=VERTEX_POINT('',#1607);
#453=VERTEX_POINT('',#1611);
#454=VERTEX_POINT('',#1615);
#455=VERTEX_POINT('',#1619);
#456=VERTEX_POINT('',#1623);
#457=VERTEX_POINT('',#1627);
#458=VERTEX_POINT('',#1631);
#459=VERTEX_POINT('',#1635);
#460=VERTEX_POINT('',#1639);
#461=VERTEX_POINT('',#1643);
#462=VERTEX_POINT('',#1647);
#463=LINE('',#1404,#475);
#464=LINE('',#1407,#476);
#465=LINE('',#1409,#477);
#466=LINE('',#1411,#478);
#467=LINE('',#1413,#479);
#468=LINE('',#1415,#480);
#469=LINE('',#1417,#481);
#470=LINE('',#1419,#482);
#471=LINE('',#1421,#483);
#472=LINE('',#1423,#484);
#473=LINE('',#1425,#485);
#474=LINE('',#1426,#486);
#475=VECTOR('',#1086,1.);
#476=VECTOR('',#1087,1.);
#477=VECTOR('',#1088,1.);
#478=VECTOR('',#1089,1.);
#479=VECTOR('',#1092,1.);
#480=VECTOR('',#1093,1.);
#481=VECTOR('',#1094,1.);
#482=VECTOR('',#1097,1.);
#483=VECTOR('',#1098,1.);
#484=VECTOR('',#1099,1.);
#485=VECTOR('',#1102,1.);
#486=VECTOR('',#1103,1.);
#487=EDGE_LOOP('',(#123,#124,#125,#126));
#488=EDGE_LOOP('',(#127,#128,#129,#130));
#489=EDGE_LOOP('',(#131,#132,#133,#134));
#490=EDGE_LOOP('',(#135,#136,#137,#138));
#491=EDGE_LOOP('',(#139));
#492=EDGE_LOOP('',(#140,#141,#142,#143));
#493=EDGE_LOOP('',(#144));
#494=EDGE_LOOP('',(#145));
#495=EDGE_LOOP('',(#146));
#496=EDGE_LOOP('',(#147));
#497=EDGE_LOOP('',(#148));
#498=EDGE_LOOP('',(#149));
#499=EDGE_LOOP('',(#150));
#500=EDGE_LOOP('',(#151));
#501=EDGE_LOOP('',(#152));
#502=EDGE_LOOP('',(#153));
#503=EDGE_LOOP('',(#154));
#504=EDGE_LOOP('',(#155));
#505=EDGE_LOOP('',(#156));
#506=EDGE_LOOP('',(#157));
#507=EDGE_LOOP('',(#158));
#508=EDGE_LOOP('',(#159));
#509=EDGE_LOOP('',(#160));
#510=EDGE_LOOP('',(#161));
#511=EDGE_LOOP('',(#162));
#512=EDGE_LOOP('',(#163));
#513=EDGE_LOOP('',(#164));
#514=EDGE_LOOP('',(#165));
#515=EDGE_LOOP('',(#166));
#516=EDGE_LOOP('',(#167));
#517=EDGE_LOOP('',(#168));
#518=EDGE_LOOP('',(#169));
#519=EDGE_LOOP('',(#170));
#520=EDGE_LOOP('',(#171));
#521=EDGE_LOOP('',(#172));
#522=EDGE_LOOP('',(#173));
#523=EDGE_LOOP('',(#174));
#524=EDGE_LOOP('',(#175));
#525=EDGE_LOOP('',(#176));
#526=EDGE_LOOP('',(#177));
#527=EDGE_LOOP('',(#178));
#528=EDGE_LOOP('',(#179));
#529=EDGE_LOOP('',(#180));
#530=EDGE_LOOP('',(#181,#182,#183,#184));
#531=EDGE_LOOP('',(#185));
#532=EDGE_LOOP('',(#186));
#533=EDGE_LOOP('',(#187));
#534=EDGE_LOOP('',(#188));
#535=EDGE_LOOP('',(#189));
#536=EDGE_LOOP('',(#190));
#537=EDGE_LOOP('',(#191));
#538=EDGE_LOOP('',(#192));
#539=EDGE_LOOP('',(#193));
#540=EDGE_LOOP('',(#194));
#541=EDGE_LOOP('',(#195));
#542=EDGE_LOOP('',(#196));
#543=EDGE_LOOP('',(#197));
#544=EDGE_LOOP('',(#198));
#545=EDGE_LOOP('',(#199));
#546=EDGE_LOOP('',(#200));
#547=EDGE_LOOP('',(#201));
#548=EDGE_LOOP('',(#202));
#549=EDGE_LOOP('',(#203));
#550=EDGE_LOOP('',(#204));
#551=EDGE_LOOP('',(#205));
#552=EDGE_LOOP('',(#206));
#553=EDGE_LOOP('',(#207));
#554=EDGE_LOOP('',(#208));
#555=EDGE_LOOP('',(#209));
#556=EDGE_LOOP('',(#210));
#557=EDGE_LOOP('',(#211));
#558=EDGE_LOOP('',(#212));
#559=EDGE_LOOP('',(#213));
#560=EDGE_LOOP('',(#214));
#561=EDGE_LOOP('',(#215));
#562=EDGE_LOOP('',(#216));
#563=EDGE_LOOP('',(#217));
#564=EDGE_LOOP('',(#218));
#565=EDGE_LOOP('',(#219));
#566=EDGE_LOOP('',(#220));
#567=EDGE_LOOP('',(#221));
#568=EDGE_LOOP('',(#222));
#569=EDGE_LOOP('',(#223));
#570=EDGE_LOOP('',(#224));
#571=EDGE_LOOP('',(#225));
#572=EDGE_LOOP('',(#226));
#573=EDGE_LOOP('',(#227));
#574=EDGE_LOOP('',(#228));
#575=EDGE_LOOP('',(#229));
#576=EDGE_LOOP('',(#230));
#577=EDGE_LOOP('',(#231));
#578=EDGE_LOOP('',(#232));
#579=EDGE_LOOP('',(#233));
#580=EDGE_LOOP('',(#234));
#581=EDGE_LOOP('',(#235));
#582=EDGE_LOOP('',(#236));
#583=EDGE_LOOP('',(#237));
#584=EDGE_LOOP('',(#238));
#585=EDGE_LOOP('',(#239));
#586=EDGE_LOOP('',(#240));
#587=EDGE_LOOP('',(#241));
#588=EDGE_LOOP('',(#242));
#589=EDGE_LOOP('',(#243));
#590=EDGE_LOOP('',(#244));
#591=EDGE_LOOP('',(#245));
#592=EDGE_LOOP('',(#246));
#593=EDGE_LOOP('',(#247));
#594=EDGE_LOOP('',(#248));
#595=EDGE_LOOP('',(#249));
#596=EDGE_LOOP('',(#250));
#597=EDGE_LOOP('',(#251));
#598=EDGE_LOOP('',(#252));
#599=EDGE_LOOP('',(#253));
#600=EDGE_LOOP('',(#254));
#601=EDGE_LOOP('',(#255));
#602=EDGE_LOOP('',(#256));
#603=EDGE_LOOP('',(#257));
#604=EDGE_LOOP('',(#258));
#605=EDGE_LOOP('',(#259));
#606=EDGE_LOOP('',(#260));
#607=EDGE_LOOP('',(#261));
#608=EDGE_LOOP('',(#262));
#609=EDGE_LOOP('',(#263));
#610=EDGE_LOOP('',(#264));
#611=EDGE_LOOP('',(#265));
#612=EDGE_LOOP('',(#266));
#613=EDGE_LOOP('',(#267));
#614=EDGE_LOOP('',(#268));
#615=EDGE_LOOP('',(#269));
#616=EDGE_LOOP('',(#270));
#617=EDGE_LOOP('',(#271));
#618=EDGE_LOOP('',(#272));
#619=EDGE_LOOP('',(#273));
#620=EDGE_LOOP('',(#274));
#621=EDGE_LOOP('',(#275));
#622=EDGE_LOOP('',(#276));
#623=EDGE_LOOP('',(#277));
#624=EDGE_LOOP('',(#278));
#625=EDGE_LOOP('',(#279));
#626=EDGE_LOOP('',(#280));
#627=EDGE_LOOP('',(#281));
#628=EDGE_LOOP('',(#282));
#629=EDGE_LOOP('',(#283));
#630=EDGE_LOOP('',(#284));
#631=EDGE_LOOP('',(#285));
#632=EDGE_LOOP('',(#286));
#633=EDGE_LOOP('',(#287));
#634=EDGE_LOOP('',(#288));
#635=EDGE_LOOP('',(#289));
#636=EDGE_LOOP('',(#290));
#637=EDGE_LOOP('',(#291));
#638=EDGE_LOOP('',(#292));
#639=EDGE_LOOP('',(#293));
#640=EDGE_LOOP('',(#294));
#641=FACE_BOUND('',#487,.T.);
#642=FACE_BOUND('',#488,.T.);
#643=FACE_BOUND('',#489,.T.);
#644=FACE_BOUND('',#490,.T.);
#645=FACE_BOUND('',#491,.T.);
#646=FACE_BOUND('',#492,.T.);
#647=FACE_BOUND('',#493,.T.);
#648=FACE_BOUND('',#494,.T.);
#649=FACE_BOUND('',#495,.T.);
#650=FACE_BOUND('',#496,.T.);
#651=FACE_BOUND('',#497,.T.);
#652=FACE_BOUND('',#498,.T.);
#653=FACE_BOUND('',#499,.T.);
#654=FACE_BOUND('',#500,.T.);
#655=FACE_BOUND('',#501,.T.);
#656=FACE_BOUND('',#502,.T.);
#657=FACE_BOUND('',#503,.T.);
#658=FACE_BOUND('',#504,.T.);
#659=FACE_BOUND('',#505,.T.);
#660=FACE_BOUND('',#506,.T.);
#661=FACE_BOUND('',#507,.T.);
#662=FACE_BOUND('',#508,.T.);
#663=FACE_BOUND('',#509,.T.);
#664=FACE_BOUND('',#510,.T.);
#665=FACE_BOUND('',#511,.T.);
#666=FACE_BOUND('',#512,.T.);
#667=FACE_BOUND('',#513,.T.);
#668=FACE_BOUND('',#514,.T.);
#669=FACE_BOUND('',#515,.T.);
#670=FACE_BOUND('',#516,.T.);
#671=FACE_BOUND('',#517,.T.);
#672=FACE_BOUND('',#518,.T.);
#673=FACE_BOUND('',#519,.T.);
#674=FACE_BOUND('',#520,.T.);
#675=FACE_BOUND('',#521,.T.);
#676=FACE_BOUND('',#522,.T.);
#677=FACE_BOUND('',#523,.T.);
#678=FACE_BOUND('',#524,.T.);
#679=FACE_BOUND('',#525,.T.);
#680=FACE_BOUND('',#526,.T.);
#681=FACE_BOUND('',#527,.T.);
#682=FACE_BOUND('',#528,.T.);
#683=FACE_BOUND('',#529,.T.);
#684=FACE_BOUND('',#530,.T.);
#685=FACE_BOUND('',#531,.T.);
#686=FACE_BOUND('',#532,.T.);
#687=FACE_BOUND('',#533,.T.);
#688=FACE_BOUND('',#534,.T.);
#689=FACE_BOUND('',#535,.T.);
#690=FACE_BOUND('',#536,.T.);
#691=FACE_BOUND('',#537,.T.);
#692=FACE_BOUND('',#538,.T.);
#693=FACE_BOUND('',#539,.T.);
#694=FACE_BOUND('',#540,.T.);
#695=FACE_BOUND('',#541,.T.);
#696=FACE_BOUND('',#542,.T.);
#697=FACE_BOUND('',#543,.T.);
#698=FACE_BOUND('',#544,.T.);
#699=FACE_BOUND('',#545,.T.);
#700=FACE_BOUND('',#546,.T.);
#701=FACE_BOUND('',#547,.T.);
#702=FACE_BOUND('',#548,.T.);
#703=FACE_BOUND('',#549,.T.);
#704=FACE_BOUND('',#550,.T.);
#705=FACE_BOUND('',#551,.T.);
#706=FACE_BOUND('',#552,.T.);
#707=FACE_BOUND('',#553,.T.);
#708=FACE_BOUND('',#554,.T.);
#709=FACE_BOUND('',#555,.T.);
#710=FACE_BOUND('',#556,.T.);
#711=FACE_BOUND('',#557,.T.);
#712=FACE_BOUND('',#558,.T.);
#713=FACE_BOUND('',#559,.T.);
#714=FACE_BOUND('',#560,.T.);
#715=FACE_BOUND('',#561,.T.);
#716=FACE_BOUND('',#562,.T.);
#717=FACE_BOUND('',#563,.T.);
#718=FACE_BOUND('',#564,.T.);
#719=FACE_BOUND('',#565,.T.);
#720=FACE_BOUND('',#566,.T.);
#721=FACE_BOUND('',#567,.T.);
#722=FACE_BOUND('',#568,.T.);
#723=FACE_BOUND('',#569,.T.);
#724=FACE_BOUND('',#570,.T.);
#725=FACE_BOUND('',#571,.T.);
#726=FACE_BOUND('',#572,.T.);
#727=FACE_BOUND('',#573,.T.);
#728=FACE_BOUND('',#574,.T.);
#729=FACE_BOUND('',#575,.T.);
#730=FACE_BOUND('',#576,.T.);
#731=FACE_BOUND('',#577,.T.);
#732=FACE_BOUND('',#578,.T.);
#733=FACE_BOUND('',#579,.T.);
#734=FACE_BOUND('',#580,.T.);
#735=FACE_BOUND('',#581,.T.);
#736=FACE_BOUND('',#582,.T.);
#737=FACE_BOUND('',#583,.T.);
#738=FACE_BOUND('',#584,.T.);
#739=FACE_BOUND('',#585,.T.);
#740=FACE_BOUND('',#586,.T.);
#741=FACE_BOUND('',#587,.T.);
#742=FACE_BOUND('',#588,.T.);
#743=FACE_BOUND('',#589,.T.);
#744=FACE_BOUND('',#590,.T.);
#745=FACE_BOUND('',#591,.T.);
#746=FACE_BOUND('',#592,.T.);
#747=FACE_BOUND('',#593,.T.);
#748=FACE_BOUND('',#594,.T.);
#749=FACE_BOUND('',#595,.T.);
#750=FACE_BOUND('',#596,.T.);
#751=FACE_BOUND('',#597,.T.);
#752=FACE_BOUND('',#598,.T.);
#753=FACE_BOUND('',#599,.T.);
#754=FACE_BOUND('',#600,.T.);
#755=FACE_BOUND('',#601,.T.);
#756=FACE_BOUND('',#602,.T.);
#757=FACE_BOUND('',#603,.T.);
#758=FACE_BOUND('',#604,.T.);
#759=FACE_BOUND('',#605,.T.);
#760=FACE_BOUND('',#606,.T.);
#761=FACE_BOUND('',#607,.T.);
#762=FACE_BOUND('',#608,.T.);
#763=FACE_BOUND('',#609,.T.);
#764=FACE_BOUND('',#610,.T.);
#765=FACE_BOUND('',#611,.T.);
#766=FACE_BOUND('',#612,.T.);
#767=FACE_BOUND('',#613,.T.);
#768=FACE_BOUND('',#614,.T.);
#769=FACE_BOUND('',#615,.T.);
#770=FACE_BOUND('',#616,.T.);
#771=FACE_BOUND('',#617,.T.);
#772=FACE_BOUND('',#618,.T.);
#773=FACE_BOUND('',#619,.T.);
#774=FACE_BOUND('',#620,.T.);
#775=FACE_BOUND('',#621,.T.);
#776=FACE_BOUND('',#622,.T.);
#777=FACE_BOUND('',#623,.T.);
#778=FACE_BOUND('',#624,.T.);
#779=FACE_BOUND('',#625,.T.);
#780=FACE_BOUND('',#626,.T.);
#781=FACE_BOUND('',#627,.T.);
#782=FACE_BOUND('',#628,.T.);
#783=FACE_BOUND('',#629,.T.);
#784=FACE_BOUND('',#630,.T.);
#785=FACE_BOUND('',#631,.T.);
#786=FACE_BOUND('',#632,.T.);
#787=FACE_BOUND('',#633,.T.);
#788=FACE_BOUND('',#634,.T.);
#789=FACE_BOUND('',#635,.T.);
#790=FACE_BOUND('',#636,.T.);
#791=FACE_BOUND('',#637,.T.);
#792=FACE_BOUND('',#638,.T.);
#793=FACE_BOUND('',#639,.T.);
#794=FACE_BOUND('',#640,.T.);
#795=PLANE('',#929);
#796=PLANE('',#930);
#797=PLANE('',#931);
#798=PLANE('',#932);
#799=PLANE('',#933);
#800=PLANE('',#935);
#801=PLANE('',#975);
#802=PLANE('',#978);
#803=PLANE('',#981);
#804=PLANE('',#984);
#805=PLANE('',#987);
#806=PLANE('',#990);
#807=PLANE('',#993);
#808=PLANE('',#996);
#809=PLANE('',#999);
#810=PLANE('',#1002);
#811=PLANE('',#1005);
#812=PLANE('',#1008);
#813=PLANE('',#1011);
#814=PLANE('',#1014);
#815=PLANE('',#1017);
#816=PLANE('',#1020);
#817=PLANE('',#1023);
#818=PLANE('',#1026);
#819=PLANE('',#1029);
#820=PLANE('',#1032);
#821=PLANE('',#1035);
#822=PLANE('',#1038);
#823=PLANE('',#1041);
#824=PLANE('',#1044);
#825=PLANE('',#1047);
#826=PLANE('',#1050);
#827=PLANE('',#1053);
#828=PLANE('',#1056);
#829=PLANE('',#1059);
#830=PLANE('',#1062);
#831=PLANE('',#1065);
#832=PLANE('',#1068);
#833=PLANE('',#1071);
#834=PLANE('',#1074);
#835=PLANE('',#1077);
#836=PLANE('',#1080);
#837=ADVANCED_FACE('',(#641),#795,.T.);
#838=ADVANCED_FACE('',(#642),#796,.T.);
#839=ADVANCED_FACE('',(#643),#797,.F.);
#840=ADVANCED_FACE('',(#644),#798,.F.);
#841=ADVANCED_FACE('',(#645,#646),#799,.T.);
#842=ADVANCED_FACE('',(#647,#648,#649,#650,#651,#652,#653,#654,#655,#656,
#657,#658,#659,#660,#661,#662,#663,#664,#665,#666,#667,#668,#669,#670,#671,
#672,#673,#674,#675,#676,#677,#678,#679,#680,#681,#682,#683,#684),#800,
 .F.);
#843=ADVANCED_FACE('',(#685,#686),#12,.F.);
#844=ADVANCED_FACE('',(#687),#801,.F.);
#845=ADVANCED_FACE('',(#688,#689),#13,.F.);
#846=ADVANCED_FACE('',(#690),#802,.F.);
#847=ADVANCED_FACE('',(#691,#692),#14,.F.);
#848=ADVANCED_FACE('',(#693),#803,.F.);
#849=ADVANCED_FACE('',(#694,#695),#15,.F.);
#850=ADVANCED_FACE('',(#696),#804,.F.);
#851=ADVANCED_FACE('',(#697,#698),#16,.F.);
#852=ADVANCED_FACE('',(#699),#805,.F.);
#853=ADVANCED_FACE('',(#700,#701),#17,.F.);
#854=ADVANCED_FACE('',(#702),#806,.F.);
#855=ADVANCED_FACE('',(#703,#704),#18,.F.);
#856=ADVANCED_FACE('',(#705),#807,.F.);
#857=ADVANCED_FACE('',(#706,#707),#19,.F.);
#858=ADVANCED_FACE('',(#708),#808,.F.);
#859=ADVANCED_FACE('',(#709,#710),#20,.F.);
#860=ADVANCED_FACE('',(#711),#809,.F.);
#861=ADVANCED_FACE('',(#712,#713),#21,.F.);
#862=ADVANCED_FACE('',(#714),#810,.F.);
#863=ADVANCED_FACE('',(#715,#716),#22,.F.);
#864=ADVANCED_FACE('',(#717),#811,.F.);
#865=ADVANCED_FACE('',(#718,#719),#23,.F.);
#866=ADVANCED_FACE('',(#720),#812,.F.);
#867=ADVANCED_FACE('',(#721,#722),#24,.F.);
#868=ADVANCED_FACE('',(#723),#813,.F.);
#869=ADVANCED_FACE('',(#724,#725),#25,.F.);
#870=ADVANCED_FACE('',(#726),#814,.F.);
#871=ADVANCED_FACE('',(#727,#728),#26,.F.);
#872=ADVANCED_FACE('',(#729),#815,.F.);
#873=ADVANCED_FACE('',(#730,#731),#27,.F.);
#874=ADVANCED_FACE('',(#732),#816,.F.);
#875=ADVANCED_FACE('',(#733,#734),#28,.F.);
#876=ADVANCED_FACE('',(#735),#817,.T.);
#877=ADVANCED_FACE('',(#736,#737),#29,.F.);
#878=ADVANCED_FACE('',(#738),#818,.T.);
#879=ADVANCED_FACE('',(#739,#740),#30,.F.);
#880=ADVANCED_FACE('',(#741),#819,.T.);
#881=ADVANCED_FACE('',(#742,#743),#31,.F.);
#882=ADVANCED_FACE('',(#744),#820,.T.);
#883=ADVANCED_FACE('',(#745,#746),#32,.F.);
#884=ADVANCED_FACE('',(#747),#821,.T.);
#885=ADVANCED_FACE('',(#748,#749),#33,.F.);
#886=ADVANCED_FACE('',(#750),#822,.T.);
#887=ADVANCED_FACE('',(#751,#752),#34,.F.);
#888=ADVANCED_FACE('',(#753),#823,.T.);
#889=ADVANCED_FACE('',(#754,#755),#35,.F.);
#890=ADVANCED_FACE('',(#756),#824,.T.);
#891=ADVANCED_FACE('',(#757,#758),#36,.F.);
#892=ADVANCED_FACE('',(#759),#825,.T.);
#893=ADVANCED_FACE('',(#760,#761),#37,.F.);
#894=ADVANCED_FACE('',(#762),#826,.T.);
#895=ADVANCED_FACE('',(#763,#764),#38,.F.);
#896=ADVANCED_FACE('',(#765),#827,.T.);
#897=ADVANCED_FACE('',(#766,#767),#39,.F.);
#898=ADVANCED_FACE('',(#768),#828,.T.);
#899=ADVANCED_FACE('',(#769,#770),#40,.F.);
#900=ADVANCED_FACE('',(#771),#829,.T.);
#901=ADVANCED_FACE('',(#772,#773),#41,.F.);
#902=ADVANCED_FACE('',(#774),#830,.T.);
#903=ADVANCED_FACE('',(#775,#776),#42,.F.);
#904=ADVANCED_FACE('',(#777),#831,.T.);
#905=ADVANCED_FACE('',(#778,#779),#43,.F.);
#906=ADVANCED_FACE('',(#780),#832,.T.);
#907=ADVANCED_FACE('',(#781,#782),#44,.F.);
#908=ADVANCED_FACE('',(#783),#833,.T.);
#909=ADVANCED_FACE('',(#784,#785),#45,.F.);
#910=ADVANCED_FACE('',(#786),#834,.T.);
#911=ADVANCED_FACE('',(#787,#788),#46,.F.);
#912=ADVANCED_FACE('',(#789),#835,.T.);
#913=ADVANCED_FACE('',(#790,#791),#47,.F.);
#914=ADVANCED_FACE('',(#792),#836,.T.);
#915=ADVANCED_FACE('',(#793,#794),#48,.F.);
#916=CLOSED_SHELL('',(#837,#838,#839,#840,#841,#842,#843,#844,#845,#846,
#847,#848,#849,#850,#851,#852,#853,#854,#855,#856,#857,#858,#859,#860,#861,
#862,#863,#864,#865,#866,#867,#868,#869,#870,#871,#872,#873,#874,#875,#876,
#877,#878,#879,#880,#881,#882,#883,#884,#885,#886,#887,#888,#889,#890,#891,
#892,#893,#894,#895,#896,#897,#898,#899,#900,#901,#902,#903,#904,#905,#906,
#907,#908,#909,#910,#911,#912,#913,#914,#915));
#917=STYLED_ITEM('',(#918),#925);
#918=PRESENTATION_STYLE_ASSIGNMENT((#919));
#919=SURFACE_STYLE_USAGE(.BOTH.,#920);
#920=SURFACE_SIDE_STYLE('',(#921));
#921=SURFACE_STYLE_FILL_AREA(#922);
#922=FILL_AREA_STYLE('',(#923));
#923=FILL_AREA_STYLE_COLOUR('',#924);
#924=COLOUR_RGB('',0.729411764705882,0.647058823529412,0.431372549019608);
#925=MANIFOLD_SOLID_BREP('kp1 - Rechte Seite',#916);
#926=SHAPE_DEFINITION_REPRESENTATION(#1656,#927);
#927=SHAPE_REPRESENTATION('kp1 - Rechte Seite',(#928),#1651);
#928=AXIS2_PLACEMENT_3D('',#1402,#1082,#1083);
#929=AXIS2_PLACEMENT_3D('',#1403,#1084,#1085);
#930=AXIS2_PLACEMENT_3D('',#1412,#1090,#1091);
#931=AXIS2_PLACEMENT_3D('',#1418,#1095,#1096);
#932=AXIS2_PLACEMENT_3D('',#1424,#1100,#1101);
#933=AXIS2_PLACEMENT_3D('',#1427,#1104,#1105);
#934=AXIS2_PLACEMENT_3D('',#1428,#1106,#1107);
#935=AXIS2_PLACEMENT_3D('',#1430,#1108,#1109);
#936=AXIS2_PLACEMENT_3D('',#1431,#1110,#1111);
#937=AXIS2_PLACEMENT_3D('',#1433,#1112,#1113);
#938=AXIS2_PLACEMENT_3D('',#1435,#1114,#1115);
#939=AXIS2_PLACEMENT_3D('',#1437,#1116,#1117);
#940=AXIS2_PLACEMENT_3D('',#1439,#1118,#1119);
#941=AXIS2_PLACEMENT_3D('',#1441,#1120,#1121);
#942=AXIS2_PLACEMENT_3D('',#1443,#1122,#1123);
#943=AXIS2_PLACEMENT_3D('',#1445,#1124,#1125);
#944=AXIS2_PLACEMENT_3D('',#1447,#1126,#1127);
#945=AXIS2_PLACEMENT_3D('',#1449,#1128,#1129);
#946=AXIS2_PLACEMENT_3D('',#1451,#1130,#1131);
#947=AXIS2_PLACEMENT_3D('',#1453,#1132,#1133);
#948=AXIS2_PLACEMENT_3D('',#1455,#1134,#1135);
#949=AXIS2_PLACEMENT_3D('',#1457,#1136,#1137);
#950=AXIS2_PLACEMENT_3D('',#1459,#1138,#1139);
#951=AXIS2_PLACEMENT_3D('',#1461,#1140,#1141);
#952=AXIS2_PLACEMENT_3D('',#1463,#1142,#1143);
#953=AXIS2_PLACEMENT_3D('',#1465,#1144,#1145);
#954=AXIS2_PLACEMENT_3D('',#1467,#1146,#1147);
#955=AXIS2_PLACEMENT_3D('',#1469,#1148,#1149);
#956=AXIS2_PLACEMENT_3D('',#1471,#1150,#1151);
#957=AXIS2_PLACEMENT_3D('',#1473,#1152,#1153);
#958=AXIS2_PLACEMENT_3D('',#1475,#1154,#1155);
#959=AXIS2_PLACEMENT_3D('',#1477,#1156,#1157);
#960=AXIS2_PLACEMENT_3D('',#1479,#1158,#1159);
#961=AXIS2_PLACEMENT_3D('',#1481,#1160,#1161);
#962=AXIS2_PLACEMENT_3D('',#1483,#1162,#1163);
#963=AXIS2_PLACEMENT_3D('',#1485,#1164,#1165);
#964=AXIS2_PLACEMENT_3D('',#1487,#1166,#1167);
#965=AXIS2_PLACEMENT_3D('',#1489,#1168,#1169);
#966=AXIS2_PLACEMENT_3D('',#1491,#1170,#1171);
#967=AXIS2_PLACEMENT_3D('',#1493,#1172,#1173);
#968=AXIS2_PLACEMENT_3D('',#1495,#1174,#1175);
#969=AXIS2_PLACEMENT_3D('',#1497,#1176,#1177);
#970=AXIS2_PLACEMENT_3D('',#1499,#1178,#1179);
#971=AXIS2_PLACEMENT_3D('',#1501,#1180,#1181);
#972=AXIS2_PLACEMENT_3D('',#1503,#1182,#1183);
#973=AXIS2_PLACEMENT_3D('',#1505,#1184,#1185);
#974=AXIS2_PLACEMENT_3D('',#1506,#1186,#1187);
#975=AXIS2_PLACEMENT_3D('',#1508,#1188,#1189);
#976=AXIS2_PLACEMENT_3D('',#1509,#1190,#1191);
#977=AXIS2_PLACEMENT_3D('',#1510,#1192,#1193);
#978=AXIS2_PLACEMENT_3D('',#1512,#1194,#1195);
#979=AXIS2_PLACEMENT_3D('',#1513,#1196,#1197);
#980=AXIS2_PLACEMENT_3D('',#1514,#1198,#1199);
#981=AXIS2_PLACEMENT_3D('',#1516,#1200,#1201);
#982=AXIS2_PLACEMENT_3D('',#1517,#1202,#1203);
#983=AXIS2_PLACEMENT_3D('',#1518,#1204,#1205);
#984=AXIS2_PLACEMENT_3D('',#1520,#1206,#1207);
#985=AXIS2_PLACEMENT_3D('',#1521,#1208,#1209);
#986=AXIS2_PLACEMENT_3D('',#1522,#1210,#1211);
#987=AXIS2_PLACEMENT_3D('',#1524,#1212,#1213);
#988=AXIS2_PLACEMENT_3D('',#1525,#1214,#1215);
#989=AXIS2_PLACEMENT_3D('',#1526,#1216,#1217);
#990=AXIS2_PLACEMENT_3D('',#1528,#1218,#1219);
#991=AXIS2_PLACEMENT_3D('',#1529,#1220,#1221);
#992=AXIS2_PLACEMENT_3D('',#1530,#1222,#1223);
#993=AXIS2_PLACEMENT_3D('',#1532,#1224,#1225);
#994=AXIS2_PLACEMENT_3D('',#1533,#1226,#1227);
#995=AXIS2_PLACEMENT_3D('',#1534,#1228,#1229);
#996=AXIS2_PLACEMENT_3D('',#1536,#1230,#1231);
#997=AXIS2_PLACEMENT_3D('',#1537,#1232,#1233);
#998=AXIS2_PLACEMENT_3D('',#1538,#1234,#1235);
#999=AXIS2_PLACEMENT_3D('',#1540,#1236,#1237);
#1000=AXIS2_PLACEMENT_3D('',#1541,#1238,#1239);
#1001=AXIS2_PLACEMENT_3D('',#1542,#1240,#1241);
#1002=AXIS2_PLACEMENT_3D('',#1544,#1242,#1243);
#1003=AXIS2_PLACEMENT_3D('',#1545,#1244,#1245);
#1004=AXIS2_PLACEMENT_3D('',#1546,#1246,#1247);
#1005=AXIS2_PLACEMENT_3D('',#1548,#1248,#1249);
#1006=AXIS2_PLACEMENT_3D('',#1549,#1250,#1251);
#1007=AXIS2_PLACEMENT_3D('',#1550,#1252,#1253);
#1008=AXIS2_PLACEMENT_3D('',#1552,#1254,#1255);
#1009=AXIS2_PLACEMENT_3D('',#1553,#1256,#1257);
#1010=AXIS2_PLACEMENT_3D('',#1554,#1258,#1259);
#1011=AXIS2_PLACEMENT_3D('',#1556,#1260,#1261);
#1012=AXIS2_PLACEMENT_3D('',#1557,#1262,#1263);
#1013=AXIS2_PLACEMENT_3D('',#1558,#1264,#1265);
#1014=AXIS2_PLACEMENT_3D('',#1560,#1266,#1267);
#1015=AXIS2_PLACEMENT_3D('',#1561,#1268,#1269);
#1016=AXIS2_PLACEMENT_3D('',#1562,#1270,#1271);
#1017=AXIS2_PLACEMENT_3D('',#1564,#1272,#1273);
#1018=AXIS2_PLACEMENT_3D('',#1565,#1274,#1275);
#1019=AXIS2_PLACEMENT_3D('',#1566,#1276,#1277);
#1020=AXIS2_PLACEMENT_3D('',#1568,#1278,#1279);
#1021=AXIS2_PLACEMENT_3D('',#1569,#1280,#1281);
#1022=AXIS2_PLACEMENT_3D('',#1570,#1282,#1283);
#1023=AXIS2_PLACEMENT_3D('',#1572,#1284,#1285);
#1024=AXIS2_PLACEMENT_3D('',#1573,#1286,#1287);
#1025=AXIS2_PLACEMENT_3D('',#1574,#1288,#1289);
#1026=AXIS2_PLACEMENT_3D('',#1576,#1290,#1291);
#1027=AXIS2_PLACEMENT_3D('',#1577,#1292,#1293);
#1028=AXIS2_PLACEMENT_3D('',#1578,#1294,#1295);
#1029=AXIS2_PLACEMENT_3D('',#1580,#1296,#1297);
#1030=AXIS2_PLACEMENT_3D('',#1581,#1298,#1299);
#1031=AXIS2_PLACEMENT_3D('',#1582,#1300,#1301);
#1032=AXIS2_PLACEMENT_3D('',#1584,#1302,#1303);
#1033=AXIS2_PLACEMENT_3D('',#1585,#1304,#1305);
#1034=AXIS2_PLACEMENT_3D('',#1586,#1306,#1307);
#1035=AXIS2_PLACEMENT_3D('',#1588,#1308,#1309);
#1036=AXIS2_PLACEMENT_3D('',#1589,#1310,#1311);
#1037=AXIS2_PLACEMENT_3D('',#1590,#1312,#1313);
#1038=AXIS2_PLACEMENT_3D('',#1592,#1314,#1315);
#1039=AXIS2_PLACEMENT_3D('',#1593,#1316,#1317);
#1040=AXIS2_PLACEMENT_3D('',#1594,#1318,#1319);
#1041=AXIS2_PLACEMENT_3D('',#1596,#1320,#1321);
#1042=AXIS2_PLACEMENT_3D('',#1597,#1322,#1323);
#1043=AXIS2_PLACEMENT_3D('',#1598,#1324,#1325);
#1044=AXIS2_PLACEMENT_3D('',#1600,#1326,#1327);
#1045=AXIS2_PLACEMENT_3D('',#1601,#1328,#1329);
#1046=AXIS2_PLACEMENT_3D('',#1602,#1330,#1331);
#1047=AXIS2_PLACEMENT_3D('',#1604,#1332,#1333);
#1048=AXIS2_PLACEMENT_3D('',#1605,#1334,#1335);
#1049=AXIS2_PLACEMENT_3D('',#1606,#1336,#1337);
#1050=AXIS2_PLACEMENT_3D('',#1608,#1338,#1339);
#1051=AXIS2_PLACEMENT_3D('',#1609,#1340,#1341);
#1052=AXIS2_PLACEMENT_3D('',#1610,#1342,#1343);
#1053=AXIS2_PLACEMENT_3D('',#1612,#1344,#1345);
#1054=AXIS2_PLACEMENT_3D('',#1613,#1346,#1347);
#1055=AXIS2_PLACEMENT_3D('',#1614,#1348,#1349);
#1056=AXIS2_PLACEMENT_3D('',#1616,#1350,#1351);
#1057=AXIS2_PLACEMENT_3D('',#1617,#1352,#1353);
#1058=AXIS2_PLACEMENT_3D('',#1618,#1354,#1355);
#1059=AXIS2_PLACEMENT_3D('',#1620,#1356,#1357);
#1060=AXIS2_PLACEMENT_3D('',#1621,#1358,#1359);
#1061=AXIS2_PLACEMENT_3D('',#1622,#1360,#1361);
#1062=AXIS2_PLACEMENT_3D('',#1624,#1362,#1363);
#1063=AXIS2_PLACEMENT_3D('',#1625,#1364,#1365);
#1064=AXIS2_PLACEMENT_3D('',#1626,#1366,#1367);
#1065=AXIS2_PLACEMENT_3D('',#1628,#1368,#1369);
#1066=AXIS2_PLACEMENT_3D('',#1629,#1370,#1371);
#1067=AXIS2_PLACEMENT_3D('',#1630,#1372,#1373);
#1068=AXIS2_PLACEMENT_3D('',#1632,#1374,#1375);
#1069=AXIS2_PLACEMENT_3D('',#1633,#1376,#1377);
#1070=AXIS2_PLACEMENT_3D('',#1634,#1378,#1379);
#1071=AXIS2_PLACEMENT_3D('',#1636,#1380,#1381);
#1072=AXIS2_PLACEMENT_3D('',#1637,#1382,#1383);
#1073=AXIS2_PLACEMENT_3D('',#1638,#1384,#1385);
#1074=AXIS2_PLACEMENT_3D('',#1640,#1386,#1387);
#1075=AXIS2_PLACEMENT_3D('',#1641,#1388,#1389);
#1076=AXIS2_PLACEMENT_3D('',#1642,#1390,#1391);
#1077=AXIS2_PLACEMENT_3D('',#1644,#1392,#1393);
#1078=AXIS2_PLACEMENT_3D('',#1645,#1394,#1395);
#1079=AXIS2_PLACEMENT_3D('',#1646,#1396,#1397);
#1080=AXIS2_PLACEMENT_3D('',#1648,#1398,#1399);
#1081=AXIS2_PLACEMENT_3D('',#1649,#1400,#1401);
#1082=DIRECTION('',(0.,0.,1.));
#1083=DIRECTION('',(1.,0.,0.));
#1084=DIRECTION('',(0.,0.,1.));
#1085=DIRECTION('',(0.,1.,0.));
#1086=DIRECTION('',(-1.,0.,0.));
#1087=DIRECTION('',(0.,1.,0.));
#1088=DIRECTION('',(-1.,0.,0.));
#1089=DIRECTION('',(0.,1.,0.));
#1090=DIRECTION('',(0.,1.,0.));
#1091=DIRECTION('',(0.,0.,-1.));
#1092=DIRECTION('',(0.,0.,1.));
#1093=DIRECTION('',(-1.,0.,0.));
#1094=DIRECTION('',(0.,0.,-1.));
#1095=DIRECTION('',(0.,0.,1.));
#1096=DIRECTION('',(0.,1.,0.));
#1097=DIRECTION('',(0.,1.,0.));
#1098=DIRECTION('',(-1.,0.,0.));
#1099=DIRECTION('',(0.,1.,0.));
#1100=DIRECTION('',(0.,1.,0.));
#1101=DIRECTION('',(0.,0.,-1.));
#1102=DIRECTION('',(0.,0.,1.));
#1103=DIRECTION('',(0.,0.,-1.));
#1104=DIRECTION('',(-1.,0.,0.));
#1105=DIRECTION('',(0.,0.,1.));
#1106=DIRECTION('',(-1.,0.,0.));
#1107=DIRECTION('',(0.,0.,1.));
#1108=DIRECTION('',(-1.,0.,0.));
#1109=DIRECTION('',(0.,0.,1.));
#1110=DIRECTION('',(1.,0.,0.));
#1111=DIRECTION('',(0.,0.,-1.));
#1112=DIRECTION('',(1.,0.,0.));
#1113=DIRECTION('',(0.,0.,1.));
#1114=DIRECTION('',(1.,0.,0.));
#1115=DIRECTION('',(0.,0.,1.));
#1116=DIRECTION('',(1.,0.,0.));
#1117=DIRECTION('',(0.,0.,1.));
#1118=DIRECTION('',(1.,0.,0.));
#1119=DIRECTION('',(0.,0.,1.));
#1120=DIRECTION('',(1.,0.,0.));
#1121=DIRECTION('',(0.,0.,1.));
#1122=DIRECTION('',(1.,0.,0.));
#1123=DIRECTION('',(0.,0.,1.));
#1124=DIRECTION('',(1.,0.,0.));
#1125=DIRECTION('',(0.,0.,1.));
#1126=DIRECTION('',(1.,0.,0.));
#1127=DIRECTION('',(0.,0.,1.));
#1128=DIRECTION('',(1.,0.,0.));
#1129=DIRECTION('',(0.,0.,1.));
#1130=DIRECTION('',(1.,0.,0.));
#1131=DIRECTION('',(0.,0.,1.));
#1132=DIRECTION('',(1.,0.,0.));
#1133=DIRECTION('',(0.,0.,1.));
#1134=DIRECTION('',(1.,0.,0.));
#1135=DIRECTION('',(0.,0.,1.));
#1136=DIRECTION('',(1.,0.,0.));
#1137=DIRECTION('',(0.,0.,1.));
#1138=DIRECTION('',(1.,0.,0.));
#1139=DIRECTION('',(0.,0.,1.));
#1140=DIRECTION('',(1.,0.,0.));
#1141=DIRECTION('',(0.,0.,1.));
#1142=DIRECTION('',(1.,0.,0.));
#1143=DIRECTION('',(0.,0.,1.));
#1144=DIRECTION('',(1.,0.,0.));
#1145=DIRECTION('',(0.,0.,1.));
#1146=DIRECTION('',(1.,0.,0.));
#1147=DIRECTION('',(0.,0.,1.));
#1148=DIRECTION('',(1.,0.,0.));
#1149=DIRECTION('',(0.,0.,1.));
#1150=DIRECTION('',(1.,0.,0.));
#1151=DIRECTION('',(0.,0.,1.));
#1152=DIRECTION('',(-1.,0.,0.));
#1153=DIRECTION('',(0.,-1.,-3.27306316222039E-17));
#1154=DIRECTION('',(-1.,0.,0.));
#1155=DIRECTION('',(0.,-1.,-3.27306316222039E-17));
#1156=DIRECTION('',(-1.,0.,0.));
#1157=DIRECTION('',(0.,-1.,-3.27306316222039E-17));
#1158=DIRECTION('',(-1.,0.,0.));
#1159=DIRECTION('',(0.,-1.,-3.27306316222039E-17));
#1160=DIRECTION('',(-1.,0.,0.));
#1161=DIRECTION('',(0.,-1.,-3.27306316222039E-17));
#1162=DIRECTION('',(-1.,0.,0.));
#1163=DIRECTION('',(0.,-1.,-3.27306316222039E-17));
#1164=DIRECTION('',(-1.,0.,0.));
#1165=DIRECTION('',(0.,-1.,-3.27306316222039E-17));
#1166=DIRECTION('',(-1.,0.,0.));
#1167=DIRECTION('',(0.,-1.,-3.27306316222039E-17));
#1168=DIRECTION('',(-1.,0.,0.));
#1169=DIRECTION('',(0.,-1.,0.));
#1170=DIRECTION('',(-1.,0.,0.));
#1171=DIRECTION('',(0.,-1.,0.));
#1172=DIRECTION('',(-1.,0.,0.));
#1173=DIRECTION('',(0.,-1.,0.));
#1174=DIRECTION('',(-1.,0.,0.));
#1175=DIRECTION('',(0.,-1.,0.));
#1176=DIRECTION('',(-1.,0.,0.));
#1177=DIRECTION('',(0.,-1.,0.));
#1178=DIRECTION('',(-1.,0.,0.));
#1179=DIRECTION('',(0.,-1.,0.));
#1180=DIRECTION('',(-1.,0.,0.));
#1181=DIRECTION('',(0.,-1.,0.));
#1182=DIRECTION('',(-1.,0.,0.));
#1183=DIRECTION('',(0.,-1.,0.));
#1184=DIRECTION('',(1.,0.,0.));
#1185=DIRECTION('',(0.,0.,-1.));
#1186=DIRECTION('',(-1.,0.,0.));
#1187=DIRECTION('',(0.,-1.,0.));
#1188=DIRECTION('',(-1.,0.,0.));
#1189=DIRECTION('',(0.,-1.,0.));
#1190=DIRECTION('',(1.,0.,0.));
#1191=DIRECTION('',(0.,0.,-1.));
#1192=DIRECTION('',(-1.,0.,0.));
#1193=DIRECTION('',(0.,-1.,0.));
#1194=DIRECTION('',(-1.,0.,0.));
#1195=DIRECTION('',(0.,-1.,0.));
#1196=DIRECTION('',(1.,0.,0.));
#1197=DIRECTION('',(0.,0.,-1.));
#1198=DIRECTION('',(-1.,0.,0.));
#1199=DIRECTION('',(0.,-1.,0.));
#1200=DIRECTION('',(-1.,0.,0.));
#1201=DIRECTION('',(0.,-1.,0.));
#1202=DIRECTION('',(1.,0.,0.));
#1203=DIRECTION('',(0.,0.,-1.));
#1204=DIRECTION('',(-1.,0.,0.));
#1205=DIRECTION('',(0.,-1.,0.));
#1206=DIRECTION('',(-1.,0.,0.));
#1207=DIRECTION('',(0.,-1.,0.));
#1208=DIRECTION('',(1.,0.,0.));
#1209=DIRECTION('',(0.,0.,-1.));
#1210=DIRECTION('',(-1.,0.,0.));
#1211=DIRECTION('',(0.,-1.,0.));
#1212=DIRECTION('',(-1.,0.,0.));
#1213=DIRECTION('',(0.,-1.,0.));
#1214=DIRECTION('',(1.,0.,0.));
#1215=DIRECTION('',(0.,0.,-1.));
#1216=DIRECTION('',(-1.,0.,0.));
#1217=DIRECTION('',(0.,-1.,0.));
#1218=DIRECTION('',(-1.,0.,0.));
#1219=DIRECTION('',(0.,-1.,0.));
#1220=DIRECTION('',(1.,0.,0.));
#1221=DIRECTION('',(0.,0.,-1.));
#1222=DIRECTION('',(-1.,0.,0.));
#1223=DIRECTION('',(0.,-1.,0.));
#1224=DIRECTION('',(-1.,0.,0.));
#1225=DIRECTION('',(0.,-1.,0.));
#1226=DIRECTION('',(1.,0.,0.));
#1227=DIRECTION('',(0.,0.,-1.));
#1228=DIRECTION('',(-1.,0.,0.));
#1229=DIRECTION('',(0.,-1.,0.));
#1230=DIRECTION('',(-1.,0.,0.));
#1231=DIRECTION('',(0.,-1.,0.));
#1232=DIRECTION('',(1.,0.,0.));
#1233=DIRECTION('',(0.,0.,-1.));
#1234=DIRECTION('',(-1.,0.,0.));
#1235=DIRECTION('',(0.,-1.,-3.27306316222039E-17));
#1236=DIRECTION('',(-1.,0.,0.));
#1237=DIRECTION('',(0.,-1.,-3.27306316222039E-17));
#1238=DIRECTION('',(1.,0.,0.));
#1239=DIRECTION('',(0.,0.,-1.));
#1240=DIRECTION('',(-1.,0.,0.));
#1241=DIRECTION('',(0.,-1.,-3.27306316222039E-17));
#1242=DIRECTION('',(-1.,0.,0.));
#1243=DIRECTION('',(0.,-1.,-3.27306316222039E-17));
#1244=DIRECTION('',(1.,0.,0.));
#1245=DIRECTION('',(0.,0.,-1.));
#1246=DIRECTION('',(-1.,0.,0.));
#1247=DIRECTION('',(0.,-1.,-3.27306316222039E-17));
#1248=DIRECTION('',(-1.,0.,0.));
#1249=DIRECTION('',(0.,-1.,-3.27306316222039E-17));
#1250=DIRECTION('',(1.,0.,0.));
#1251=DIRECTION('',(0.,0.,-1.));
#1252=DIRECTION('',(-1.,0.,0.));
#1253=DIRECTION('',(0.,-1.,-3.27306316222039E-17));
#1254=DIRECTION('',(-1.,0.,0.));
#1255=DIRECTION('',(0.,-1.,-3.27306316222039E-17));
#1256=DIRECTION('',(1.,0.,0.));
#1257=DIRECTION('',(0.,0.,-1.));
#1258=DIRECTION('',(-1.,0.,0.));
#1259=DIRECTION('',(0.,-1.,-3.27306316222039E-17));
#1260=DIRECTION('',(-1.,0.,0.));
#1261=DIRECTION('',(0.,-1.,-3.27306316222039E-17));
#1262=DIRECTION('',(1.,0.,0.));
#1263=DIRECTION('',(0.,0.,-1.));
#1264=DIRECTION('',(-1.,0.,0.));
#1265=DIRECTION('',(0.,-1.,-3.27306316222039E-17));
#1266=DIRECTION('',(-1.,0.,0.));
#1267=DIRECTION('',(0.,-1.,-3.27306316222039E-17));
#1268=DIRECTION('',(1.,0.,0.));
#1269=DIRECTION('',(0.,0.,-1.));
#1270=DIRECTION('',(-1.,0.,0.));
#1271=DIRECTION('',(0.,-1.,-3.27306316222039E-17));
#1272=DIRECTION('',(-1.,0.,0.));
#1273=DIRECTION('',(0.,-1.,-3.27306316222039E-17));
#1274=DIRECTION('',(1.,0.,0.));
#1275=DIRECTION('',(0.,0.,-1.));
#1276=DIRECTION('',(-1.,0.,0.));
#1277=DIRECTION('',(0.,-1.,-3.27306316222039E-17));
#1278=DIRECTION('',(-1.,0.,0.));
#1279=DIRECTION('',(0.,-1.,-3.27306316222039E-17));
#1280=DIRECTION('',(1.,0.,0.));
#1281=DIRECTION('',(0.,0.,-1.));
#1282=DIRECTION('',(1.,0.,0.));
#1283=DIRECTION('',(0.,0.,1.));
#1284=DIRECTION('',(1.,0.,0.));
#1285=DIRECTION('',(0.,0.,1.));
#1286=DIRECTION('',(1.,0.,0.));
#1287=DIRECTION('',(0.,0.,-1.));
#1288=DIRECTION('',(1.,0.,0.));
#1289=DIRECTION('',(0.,0.,1.));
#1290=DIRECTION('',(1.,0.,0.));
#1291=DIRECTION('',(0.,0.,1.));
#1292=DIRECTION('',(1.,0.,0.));
#1293=DIRECTION('',(0.,0.,-1.));
#1294=DIRECTION('',(1.,0.,0.));
#1295=DIRECTION('',(0.,0.,1.));
#1296=DIRECTION('',(1.,0.,0.));
#1297=DIRECTION('',(0.,0.,1.));
#1298=DIRECTION('',(1.,0.,0.));
#1299=DIRECTION('',(0.,0.,-1.));
#1300=DIRECTION('',(1.,0.,0.));
#1301=DIRECTION('',(0.,0.,1.));
#1302=DIRECTION('',(1.,0.,0.));
#1303=DIRECTION('',(0.,0.,1.));
#1304=DIRECTION('',(1.,0.,0.));
#1305=DIRECTION('',(0.,0.,-1.));
#1306=DIRECTION('',(1.,0.,0.));
#1307=DIRECTION('',(0.,0.,1.));
#1308=DIRECTION('',(1.,0.,0.));
#1309=DIRECTION('',(0.,0.,1.));
#1310=DIRECTION('',(1.,0.,0.));
#1311=DIRECTION('',(0.,0.,-1.));
#1312=DIRECTION('',(1.,0.,0.));
#1313=DIRECTION('',(0.,0.,1.));
#1314=DIRECTION('',(1.,0.,0.));
#1315=DIRECTION('',(0.,0.,1.));
#1316=DIRECTION('',(1.,0.,0.));
#1317=DIRECTION('',(0.,0.,-1.));
#1318=DIRECTION('',(1.,0.,0.));
#1319=DIRECTION('',(0.,0.,1.));
#1320=DIRECTION('',(1.,0.,0.));
#1321=DIRECTION('',(0.,0.,1.));
#1322=DIRECTION('',(1.,0.,0.));
#1323=DIRECTION('',(0.,0.,-1.));
#1324=DIRECTION('',(1.,0.,0.));
#1325=DIRECTION('',(0.,0.,1.));
#1326=DIRECTION('',(1.,0.,0.));
#1327=DIRECTION('',(0.,0.,1.));
#1328=DIRECTION('',(1.,0.,0.));
#1329=DIRECTION('',(0.,0.,-1.));
#1330=DIRECTION('',(1.,0.,0.));
#1331=DIRECTION('',(0.,0.,1.));
#1332=DIRECTION('',(1.,0.,0.));
#1333=DIRECTION('',(0.,0.,1.));
#1334=DIRECTION('',(1.,0.,0.));
#1335=DIRECTION('',(0.,0.,-1.));
#1336=DIRECTION('',(1.,0.,0.));
#1337=DIRECTION('',(0.,0.,1.));
#1338=DIRECTION('',(1.,0.,0.));
#1339=DIRECTION('',(0.,0.,1.));
#1340=DIRECTION('',(1.,0.,0.));
#1341=DIRECTION('',(0.,0.,-1.));
#1342=DIRECTION('',(1.,0.,0.));
#1343=DIRECTION('',(0.,0.,1.));
#1344=DIRECTION('',(1.,0.,0.));
#1345=DIRECTION('',(0.,0.,1.));
#1346=DIRECTION('',(1.,0.,0.));
#1347=DIRECTION('',(0.,0.,-1.));
#1348=DIRECTION('',(1.,0.,0.));
#1349=DIRECTION('',(0.,0.,1.));
#1350=DIRECTION('',(1.,0.,0.));
#1351=DIRECTION('',(0.,0.,1.));
#1352=DIRECTION('',(1.,0.,0.));
#1353=DIRECTION('',(0.,0.,-1.));
#1354=DIRECTION('',(1.,0.,0.));
#1355=DIRECTION('',(0.,0.,1.));
#1356=DIRECTION('',(1.,0.,0.));
#1357=DIRECTION('',(0.,0.,1.));
#1358=DIRECTION('',(1.,0.,0.));
#1359=DIRECTION('',(0.,0.,-1.));
#1360=DIRECTION('',(1.,0.,0.));
#1361=DIRECTION('',(0.,0.,1.));
#1362=DIRECTION('',(1.,0.,0.));
#1363=DIRECTION('',(0.,0.,1.));
#1364=DIRECTION('',(1.,0.,0.));
#1365=DIRECTION('',(0.,0.,-1.));
#1366=DIRECTION('',(1.,0.,0.));
#1367=DIRECTION('',(0.,0.,1.));
#1368=DIRECTION('',(1.,0.,0.));
#1369=DIRECTION('',(0.,0.,1.));
#1370=DIRECTION('',(1.,0.,0.));
#1371=DIRECTION('',(0.,0.,-1.));
#1372=DIRECTION('',(1.,0.,0.));
#1373=DIRECTION('',(0.,0.,1.));
#1374=DIRECTION('',(1.,0.,0.));
#1375=DIRECTION('',(0.,0.,1.));
#1376=DIRECTION('',(1.,0.,0.));
#1377=DIRECTION('',(0.,0.,-1.));
#1378=DIRECTION('',(1.,0.,0.));
#1379=DIRECTION('',(0.,0.,1.));
#1380=DIRECTION('',(1.,0.,0.));
#1381=DIRECTION('',(0.,0.,1.));
#1382=DIRECTION('',(1.,0.,0.));
#1383=DIRECTION('',(0.,0.,-1.));
#1384=DIRECTION('',(1.,0.,0.));
#1385=DIRECTION('',(0.,0.,1.));
#1386=DIRECTION('',(1.,0.,0.));
#1387=DIRECTION('',(0.,0.,1.));
#1388=DIRECTION('',(1.,0.,0.));
#1389=DIRECTION('',(0.,0.,-1.));
#1390=DIRECTION('',(1.,0.,0.));
#1391=DIRECTION('',(0.,0.,1.));
#1392=DIRECTION('',(1.,0.,0.));
#1393=DIRECTION('',(0.,0.,1.));
#1394=DIRECTION('',(1.,0.,0.));
#1395=DIRECTION('',(0.,0.,-1.));
#1396=DIRECTION('',(1.,0.,0.));
#1397=DIRECTION('',(0.,0.,1.));
#1398=DIRECTION('',(1.,0.,0.));
#1399=DIRECTION('',(0.,0.,1.));
#1400=DIRECTION('',(1.,0.,0.));
#1401=DIRECTION('',(0.,0.,-1.));
#1402=CARTESIAN_POINT('',(0.,0.,0.));
#1403=CARTESIAN_POINT('',(0.,0.265,1.));
#1404=CARTESIAN_POINT('',(0.,0.,1.));
#1405=CARTESIAN_POINT('',(0.019,0.,1.));
#1406=CARTESIAN_POINT('',(0.,0.,1.));
#1407=CARTESIAN_POINT('',(0.019,0.265,1.));
#1408=CARTESIAN_POINT('',(0.019,0.53,1.));
#1409=CARTESIAN_POINT('',(-9.71445146547012E-17,0.53,1.));
#1410=CARTESIAN_POINT('',(-9.71445146547012E-17,0.53,1.));
#1411=CARTESIAN_POINT('',(0.,0.265,1.));
#1412=CARTESIAN_POINT('',(-9.71445146547012E-17,0.53,1.));
#1413=CARTESIAN_POINT('',(0.019,0.53,1.));
#1414=CARTESIAN_POINT('',(0.019,0.53,0.));
#1415=CARTESIAN_POINT('',(-9.71445146547012E-17,0.53,0.));
#1416=CARTESIAN_POINT('',(-9.71445146547012E-17,0.53,0.));
#1417=CARTESIAN_POINT('',(-9.71445146547012E-17,0.53,1.));
#1418=CARTESIAN_POINT('',(0.,0.265,0.));
#1419=CARTESIAN_POINT('',(0.019,0.265,0.));
#1420=CARTESIAN_POINT('',(0.019,0.,0.));
#1421=CARTESIAN_POINT('',(0.,0.,0.));
#1422=CARTESIAN_POINT('',(0.,0.,0.));
#1423=CARTESIAN_POINT('',(0.,0.265,0.));
#1424=CARTESIAN_POINT('',(0.,0.,1.));
#1425=CARTESIAN_POINT('',(0.019,0.,1.));
#1426=CARTESIAN_POINT('',(0.,0.,1.));
#1427=CARTESIAN_POINT('',(0.,0.265,1.));
#1428=CARTESIAN_POINT('',(0.,0.326430332517152,0.482860033545711));
#1429=CARTESIAN_POINT('',(0.,0.326430332517152,0.533022293792422));
#1430=CARTESIAN_POINT('',(0.019,0.265,1.));
#1431=CARTESIAN_POINT('',(0.019,0.326430332517152,0.482860033545711));
#1432=CARTESIAN_POINT('',(0.019,0.326430332517152,0.432697773299));
#1433=CARTESIAN_POINT('',(0.019,0.475,0.633333333333333));
#1434=CARTESIAN_POINT('',(0.019,0.475,0.635833333333333));
#1435=CARTESIAN_POINT('',(0.019,0.032,0.544444444444445));
#1436=CARTESIAN_POINT('',(0.019,0.032,0.546944444444445));
#1437=CARTESIAN_POINT('',(0.019,0.475,0.544444444444445));
#1438=CARTESIAN_POINT('',(0.019,0.475,0.546944444444445));
#1439=CARTESIAN_POINT('',(0.019,0.032,0.455555555555556));
#1440=CARTESIAN_POINT('',(0.019,0.032,0.458055555555556));
#1441=CARTESIAN_POINT('',(0.019,0.475,0.811111111111111));
#1442=CARTESIAN_POINT('',(0.019,0.475,0.813611111111111));
#1443=CARTESIAN_POINT('',(0.019,0.032,0.722222222222222));
#1444=CARTESIAN_POINT('',(0.019,0.032,0.724722222222222));
#1445=CARTESIAN_POINT('',(0.019,0.475,0.722222222222222));
#1446=CARTESIAN_POINT('',(0.019,0.475,0.724722222222222));
#1447=CARTESIAN_POINT('',(0.019,0.032,0.633333333333333));
#1448=CARTESIAN_POINT('',(0.019,0.032,0.635833333333333));
#1449=CARTESIAN_POINT('',(0.019,0.475,0.277777777777778));
#1450=CARTESIAN_POINT('',(0.019,0.475,0.280277777777778));
#1451=CARTESIAN_POINT('',(0.019,0.032,0.188888888888889));
#1452=CARTESIAN_POINT('',(0.019,0.032,0.191388888888889));
#1453=CARTESIAN_POINT('',(0.019,0.475,0.188888888888889));
#1454=CARTESIAN_POINT('',(0.019,0.475,0.191388888888889));
#1455=CARTESIAN_POINT('',(0.019,0.032,0.1));
#1456=CARTESIAN_POINT('',(0.019,0.032,0.1025));
#1457=CARTESIAN_POINT('',(0.019,0.475,0.455555555555556));
#1458=CARTESIAN_POINT('',(0.019,0.475,0.458055555555556));
#1459=CARTESIAN_POINT('',(0.019,0.032,0.366666666666666));
#1460=CARTESIAN_POINT('',(0.019,0.032,0.369166666666666));
#1461=CARTESIAN_POINT('',(0.019,0.475,0.366666666666666));
#1462=CARTESIAN_POINT('',(0.019,0.475,0.369166666666666));
#1463=CARTESIAN_POINT('',(0.019,0.032,0.277777777777778));
#1464=CARTESIAN_POINT('',(0.019,0.032,0.280277777777778));
#1465=CARTESIAN_POINT('',(0.019,0.032,0.9));
#1466=CARTESIAN_POINT('',(0.019,0.032,0.9025));
#1467=CARTESIAN_POINT('',(0.019,0.475,0.9));
#1468=CARTESIAN_POINT('',(0.019,0.475,0.9025));
#1469=CARTESIAN_POINT('',(0.019,0.032,0.811111111111111));
#1470=CARTESIAN_POINT('',(0.019,0.032,0.813611111111111));
#1471=CARTESIAN_POINT('',(0.019,0.475,0.1));
#1472=CARTESIAN_POINT('',(0.019,0.475,0.1025));
#1473=CARTESIAN_POINT('',(0.019,0.02,0.0095));
#1474=CARTESIAN_POINT('',(0.019,0.016,0.0095));
#1475=CARTESIAN_POINT('',(0.019,0.084,0.0095));
#1476=CARTESIAN_POINT('',(0.019,0.08,0.0095));
#1477=CARTESIAN_POINT('',(0.019,0.148,0.0095));
#1478=CARTESIAN_POINT('',(0.019,0.144,0.0095));
#1479=CARTESIAN_POINT('',(0.019,0.212,0.0095));
#1480=CARTESIAN_POINT('',(0.019,0.208,0.0095));
#1481=CARTESIAN_POINT('',(0.019,0.276,0.0095));
#1482=CARTESIAN_POINT('',(0.019,0.272,0.0095));
#1483=CARTESIAN_POINT('',(0.019,0.34,0.0095));
#1484=CARTESIAN_POINT('',(0.019,0.336,0.0095));
#1485=CARTESIAN_POINT('',(0.019,0.404,0.0095));
#1486=CARTESIAN_POINT('',(0.019,0.4,0.0095));
#1487=CARTESIAN_POINT('',(0.019,0.468,0.0095));
#1488=CARTESIAN_POINT('',(0.019,0.464,0.0095));
#1489=CARTESIAN_POINT('',(0.019,0.02,0.9905));
#1490=CARTESIAN_POINT('',(0.019,0.016,0.9905));
#1491=CARTESIAN_POINT('',(0.019,0.084,0.9905));
#1492=CARTESIAN_POINT('',(0.019,0.08,0.9905));
#1493=CARTESIAN_POINT('',(0.019,0.148,0.9905));
#1494=CARTESIAN_POINT('',(0.019,0.144,0.9905));
#1495=CARTESIAN_POINT('',(0.019,0.212,0.9905));
#1496=CARTESIAN_POINT('',(0.019,0.208,0.9905));
#1497=CARTESIAN_POINT('',(0.019,0.276,0.9905));
#1498=CARTESIAN_POINT('',(0.019,0.272,0.9905));
#1499=CARTESIAN_POINT('',(0.019,0.34,0.9905));
#1500=CARTESIAN_POINT('',(0.019,0.336,0.9905));
#1501=CARTESIAN_POINT('',(0.019,0.404,0.9905));
#1502=CARTESIAN_POINT('',(0.019,0.4,0.9905));
#1503=CARTESIAN_POINT('',(0.019,0.468,0.9905));
#1504=CARTESIAN_POINT('',(0.019,0.464,0.9905));
#1505=CARTESIAN_POINT('',(0.005,0.468,0.9905));
#1506=CARTESIAN_POINT('',(0.005,0.468,0.9905));
#1507=CARTESIAN_POINT('',(0.005,0.464,0.9905));
#1508=CARTESIAN_POINT('',(0.005,0.244,0.9905));
#1509=CARTESIAN_POINT('',(0.005,0.404,0.9905));
#1510=CARTESIAN_POINT('',(0.005,0.404,0.9905));
#1511=CARTESIAN_POINT('',(0.005,0.4,0.9905));
#1512=CARTESIAN_POINT('',(0.005,0.244,0.9905));
#1513=CARTESIAN_POINT('',(0.005,0.34,0.9905));
#1514=CARTESIAN_POINT('',(0.005,0.34,0.9905));
#1515=CARTESIAN_POINT('',(0.005,0.336,0.9905));
#1516=CARTESIAN_POINT('',(0.005,0.244,0.9905));
#1517=CARTESIAN_POINT('',(0.005,0.276,0.9905));
#1518=CARTESIAN_POINT('',(0.005,0.276,0.9905));
#1519=CARTESIAN_POINT('',(0.005,0.272,0.9905));
#1520=CARTESIAN_POINT('',(0.005,0.244,0.9905));
#1521=CARTESIAN_POINT('',(0.005,0.212,0.9905));
#1522=CARTESIAN_POINT('',(0.005,0.212,0.9905));
#1523=CARTESIAN_POINT('',(0.005,0.208,0.9905));
#1524=CARTESIAN_POINT('',(0.005,0.244,0.9905));
#1525=CARTESIAN_POINT('',(0.005,0.148,0.9905));
#1526=CARTESIAN_POINT('',(0.005,0.148,0.9905));
#1527=CARTESIAN_POINT('',(0.005,0.144,0.9905));
#1528=CARTESIAN_POINT('',(0.005,0.244,0.9905));
#1529=CARTESIAN_POINT('',(0.005,0.084,0.9905));
#1530=CARTESIAN_POINT('',(0.005,0.084,0.9905));
#1531=CARTESIAN_POINT('',(0.005,0.08,0.9905));
#1532=CARTESIAN_POINT('',(0.005,0.244,0.9905));
#1533=CARTESIAN_POINT('',(0.005,0.02,0.9905));
#1534=CARTESIAN_POINT('',(0.005,0.02,0.9905));
#1535=CARTESIAN_POINT('',(0.005,0.016,0.9905));
#1536=CARTESIAN_POINT('',(0.005,0.244,0.9905));
#1537=CARTESIAN_POINT('',(0.005,0.468,0.0095));
#1538=CARTESIAN_POINT('',(0.005,0.468,0.0095));
#1539=CARTESIAN_POINT('',(0.005,0.464,0.0095));
#1540=CARTESIAN_POINT('',(0.005,0.244,0.0095));
#1541=CARTESIAN_POINT('',(0.005,0.404,0.0095));
#1542=CARTESIAN_POINT('',(0.005,0.404,0.0095));
#1543=CARTESIAN_POINT('',(0.005,0.4,0.0095));
#1544=CARTESIAN_POINT('',(0.005,0.244,0.0095));
#1545=CARTESIAN_POINT('',(0.005,0.34,0.0095));
#1546=CARTESIAN_POINT('',(0.005,0.34,0.0095));
#1547=CARTESIAN_POINT('',(0.005,0.336,0.0095));
#1548=CARTESIAN_POINT('',(0.005,0.244,0.0095));
#1549=CARTESIAN_POINT('',(0.005,0.276,0.0095));
#1550=CARTESIAN_POINT('',(0.005,0.276,0.0095));
#1551=CARTESIAN_POINT('',(0.005,0.272,0.0095));
#1552=CARTESIAN_POINT('',(0.005,0.244,0.0095));
#1553=CARTESIAN_POINT('',(0.005,0.212,0.0095));
#1554=CARTESIAN_POINT('',(0.005,0.212,0.0095));
#1555=CARTESIAN_POINT('',(0.005,0.208,0.0095));
#1556=CARTESIAN_POINT('',(0.005,0.244,0.0095));
#1557=CARTESIAN_POINT('',(0.005,0.148,0.0095));
#1558=CARTESIAN_POINT('',(0.005,0.148,0.0095));
#1559=CARTESIAN_POINT('',(0.005,0.144,0.0095));
#1560=CARTESIAN_POINT('',(0.005,0.244,0.0095));
#1561=CARTESIAN_POINT('',(0.005,0.084,0.0095));
#1562=CARTESIAN_POINT('',(0.005,0.084,0.0095));
#1563=CARTESIAN_POINT('',(0.005,0.08,0.0095));
#1564=CARTESIAN_POINT('',(0.005,0.244,0.0095));
#1565=CARTESIAN_POINT('',(0.005,0.02,0.0095));
#1566=CARTESIAN_POINT('',(0.005,0.02,0.0095));
#1567=CARTESIAN_POINT('',(0.005,0.016,0.0095));
#1568=CARTESIAN_POINT('',(0.005,0.244,0.0095));
#1569=CARTESIAN_POINT('',(0.004,0.475,0.1));
#1570=CARTESIAN_POINT('',(0.004,0.475,0.1));
#1571=CARTESIAN_POINT('',(0.004,0.475,0.1025));
#1572=CARTESIAN_POINT('',(0.004,0.2535,0.5));
#1573=CARTESIAN_POINT('',(0.004,0.032,0.811111111111111));
#1574=CARTESIAN_POINT('',(0.004,0.032,0.811111111111111));
#1575=CARTESIAN_POINT('',(0.004,0.032,0.813611111111111));
#1576=CARTESIAN_POINT('',(0.004,0.2535,0.5));
#1577=CARTESIAN_POINT('',(0.004,0.475,0.9));
#1578=CARTESIAN_POINT('',(0.004,0.475,0.9));
#1579=CARTESIAN_POINT('',(0.004,0.475,0.9025));
#1580=CARTESIAN_POINT('',(0.004,0.2535,0.5));
#1581=CARTESIAN_POINT('',(0.004,0.032,0.9));
#1582=CARTESIAN_POINT('',(0.004,0.032,0.9));
#1583=CARTESIAN_POINT('',(0.004,0.032,0.9025));
#1584=CARTESIAN_POINT('',(0.004,0.2535,0.5));
#1585=CARTESIAN_POINT('',(0.004,0.032,0.277777777777778));
#1586=CARTESIAN_POINT('',(0.004,0.032,0.277777777777778));
#1587=CARTESIAN_POINT('',(0.004,0.032,0.280277777777778));
#1588=CARTESIAN_POINT('',(0.004,0.2535,0.5));
#1589=CARTESIAN_POINT('',(0.004,0.475,0.366666666666666));
#1590=CARTESIAN_POINT('',(0.004,0.475,0.366666666666666));
#1591=CARTESIAN_POINT('',(0.004,0.475,0.369166666666666));
#1592=CARTESIAN_POINT('',(0.004,0.2535,0.5));
#1593=CARTESIAN_POINT('',(0.004,0.032,0.366666666666666));
#1594=CARTESIAN_POINT('',(0.004,0.032,0.366666666666666));
#1595=CARTESIAN_POINT('',(0.004,0.032,0.369166666666666));
#1596=CARTESIAN_POINT('',(0.004,0.2535,0.5));
#1597=CARTESIAN_POINT('',(0.004,0.475,0.455555555555556));
#1598=CARTESIAN_POINT('',(0.004,0.475,0.455555555555556));
#1599=CARTESIAN_POINT('',(0.004,0.475,0.458055555555556));
#1600=CARTESIAN_POINT('',(0.004,0.2535,0.5));
#1601=CARTESIAN_POINT('',(0.004,0.032,0.1));
#1602=CARTESIAN_POINT('',(0.004,0.032,0.1));
#1603=CARTESIAN_POINT('',(0.004,0.032,0.1025));
#1604=CARTESIAN_POINT('',(0.004,0.2535,0.5));
#1605=CARTESIAN_POINT('',(0.004,0.475,0.188888888888889));
#1606=CARTESIAN_POINT('',(0.004,0.475,0.188888888888889));
#1607=CARTESIAN_POINT('',(0.004,0.475,0.191388888888889));
#1608=CARTESIAN_POINT('',(0.004,0.2535,0.5));
#1609=CARTESIAN_POINT('',(0.004,0.032,0.188888888888889));
#1610=CARTESIAN_POINT('',(0.004,0.032,0.188888888888889));
#1611=CARTESIAN_POINT('',(0.004,0.032,0.191388888888889));
#1612=CARTESIAN_POINT('',(0.004,0.2535,0.5));
#1613=CARTESIAN_POINT('',(0.004,0.475,0.277777777777778));
#1614=CARTESIAN_POINT('',(0.004,0.475,0.277777777777778));
#1615=CARTESIAN_POINT('',(0.004,0.475,0.280277777777778));
#1616=CARTESIAN_POINT('',(0.004,0.2535,0.5));
#1617=CARTESIAN_POINT('',(0.004,0.032,0.633333333333333));
#1618=CARTESIAN_POINT('',(0.004,0.032,0.633333333333333));
#1619=CARTESIAN_POINT('',(0.004,0.032,0.635833333333333));
#1620=CARTESIAN_POINT('',(0.004,0.2535,0.5));
#1621=CARTESIAN_POINT('',(0.004,0.475,0.722222222222222));
#1622=CARTESIAN_POINT('',(0.004,0.475,0.722222222222222));
#1623=CARTESIAN_POINT('',(0.004,0.475,0.724722222222222));
#1624=CARTESIAN_POINT('',(0.004,0.2535,0.5));
#1625=CARTESIAN_POINT('',(0.004,0.032,0.722222222222222));
#1626=CARTESIAN_POINT('',(0.004,0.032,0.722222222222222));
#1627=CARTESIAN_POINT('',(0.004,0.032,0.724722222222222));
#1628=CARTESIAN_POINT('',(0.004,0.2535,0.5));
#1629=CARTESIAN_POINT('',(0.004,0.475,0.811111111111111));
#1630=CARTESIAN_POINT('',(0.004,0.475,0.811111111111111));
#1631=CARTESIAN_POINT('',(0.004,0.475,0.813611111111111));
#1632=CARTESIAN_POINT('',(0.004,0.2535,0.5));
#1633=CARTESIAN_POINT('',(0.004,0.032,0.455555555555556));
#1634=CARTESIAN_POINT('',(0.004,0.032,0.455555555555556));
#1635=CARTESIAN_POINT('',(0.004,0.032,0.458055555555556));
#1636=CARTESIAN_POINT('',(0.004,0.2535,0.5));
#1637=CARTESIAN_POINT('',(0.004,0.475,0.544444444444445));
#1638=CARTESIAN_POINT('',(0.004,0.475,0.544444444444445));
#1639=CARTESIAN_POINT('',(0.004,0.475,0.546944444444445));
#1640=CARTESIAN_POINT('',(0.004,0.2535,0.5));
#1641=CARTESIAN_POINT('',(0.004,0.032,0.544444444444445));
#1642=CARTESIAN_POINT('',(0.004,0.032,0.544444444444445));
#1643=CARTESIAN_POINT('',(0.004,0.032,0.546944444444445));
#1644=CARTESIAN_POINT('',(0.004,0.2535,0.5));
#1645=CARTESIAN_POINT('',(0.004,0.475,0.633333333333333));
#1646=CARTESIAN_POINT('',(0.004,0.475,0.633333333333333));
#1647=CARTESIAN_POINT('',(0.004,0.475,0.635833333333333));
#1648=CARTESIAN_POINT('',(0.004,0.2535,0.5));
#1649=CARTESIAN_POINT('',(-0.006,0.326430332517152,0.482860033545711));
#1650=MECHANICAL_DESIGN_GEOMETRIC_PRESENTATION_REPRESENTATION('',(#917),
#1651);
#1651=(
GEOMETRIC_REPRESENTATION_CONTEXT(3)
GLOBAL_UNCERTAINTY_ASSIGNED_CONTEXT((#1652))
GLOBAL_UNIT_ASSIGNED_CONTEXT((#1655,#1654,#1653))
REPRESENTATION_CONTEXT('kp1 - Rechte Seite','TOP_LEVEL_ASSEMBLY_PART')
);
#1652=UNCERTAINTY_MEASURE_WITH_UNIT(LENGTH_MEASURE(1.E-8),#1655,
'DISTANCE_ACCURACY_VALUE','Maximum Tolerance applied to model');
#1653=(
NAMED_UNIT(*)
SI_UNIT($,.STERADIAN.)
SOLID_ANGLE_UNIT()
);
#1654=(
NAMED_UNIT(*)
PLANE_ANGLE_UNIT()
SI_UNIT($,.RADIAN.)
);
#1655=(
LENGTH_UNIT()
NAMED_UNIT(*)
SI_UNIT($,.METRE.)
);
#1656=PRODUCT_DEFINITION_SHAPE('','',#1657);
#1657=PRODUCT_DEFINITION('','',#1659,#1658);
#1658=PRODUCT_DEFINITION_CONTEXT('',#1665,'design');
#1659=PRODUCT_DEFINITION_FORMATION_WITH_SPECIFIED_SOURCE('','',#1661,
 .NOT_KNOWN.);
#1660=PRODUCT_RELATED_PRODUCT_CATEGORY('','',(#1661));
#1661=PRODUCT('kp1 - Rechte Seite','kp1 - Rechte Seite',
'kp1 - Rechte Seite',(#1663));
#1662=PRODUCT_CATEGORY('','');
#1663=PRODUCT_CONTEXT('',#1665,'mechanical');
#1664=APPLICATION_PROTOCOL_DEFINITION('international standard',
'ap242_managed_model_based_3d_engineering',2020,#1665);
#1665=APPLICATION_CONTEXT('managed model based 3d engineering');
ENDSEC;
END-ISO-10303-21;
